<?xml version="1.0" encoding="UTF-8"?>
<svg version="1.1" xmlns="http://www.w3.org/2000/svg" width="800" height="640">
<path d="M0 0 C264 0 528 0 800 0 C800 211.2 800 422.4 800 640 C536 640 272 640 0 640 C0 428.8 0 217.6 0 0 Z " fill="#2B0F44" transform="translate(0,0)"/>
<path d="M0 0 C1.19302227 -0.00001409 1.19302227 -0.00001409 2.410146 -0.00002846 C3.19033746 -0.00003756 3.97052893 -0.00004666 4.77436256 -0.00005603 C5.78868762 -0.00006933 5.78868762 -0.00006933 6.82350409 -0.0000829 C32.58026027 0.00105563 58.33699657 0.01976843 84.09375 0.03515625 C133.42875 0.05578125 182.76375 0.07640625 233.59375 0.09765625 C233.59375 126.15765625 233.59375 252.21765625 233.59375 382.09765625 C86.59375 382.09765625 86.59375 382.09765625 53.59375 381.09765625 C53.60535156 385.73957031 53.61695313 390.38148438 53.62890625 395.1640625 C53.63403386 398.15820458 53.63884902 401.15234101 53.64257812 404.14648438 C53.64848664 408.86760626 53.65536502 413.58870823 53.66918945 418.30981445 C53.72043132 436.26789317 53.61985267 454.16110388 52.59375 472.09765625 C53.54064697 472.11747559 54.48754395 472.13729492 55.46313477 472.15771484 C80.20226148 472.68807812 104.88854348 473.70578509 129.59375 475.09765625 C129.59375 475.42765625 129.59375 475.75765625 129.59375 476.09765625 C101.9186328 477.35132165 74.30116119 478.49096958 46.59375 478.09765625 C45.57616993 454.10231831 44.56652949 430.10772997 43.96875 406.09765625 C43.93819016 404.91079224 43.93819016 404.91079224 43.90701294 403.69995117 C43.8875058 402.93078369 43.86799866 402.16161621 43.84790039 401.36914062 C43.82258995 400.37448792 43.82258995 400.37448792 43.79676819 399.35974121 C43.64603974 392.42244036 43.57348141 385.48977231 43.58447266 378.55078125 C43.58547722 377.32222412 43.58547722 377.32222412 43.58650208 376.06884766 C43.58822733 374.0784498 43.5908885 372.08805279 43.59375 370.09765625 C44.19430678 370.08827058 44.79486357 370.07888491 45.41361904 370.06921482 C60.15172503 369.83867307 74.88977413 369.6047245 89.62776852 369.36716557 C96.75548317 369.25235413 103.88321171 369.13861926 111.01098633 369.02758789 C117.23687852 368.93060248 123.46273164 368.83142512 129.68855006 368.72981066 C132.97294281 368.67627597 136.25734713 368.62403349 139.54179192 368.57377815 C153.16102108 368.36470087 166.75710025 368.03953941 180.3643713 367.42826176 C191.77196191 366.94930387 203.17854088 367.00222363 214.59375 367.09765625 C214.58344254 365.96454608 214.57313507 364.83143591 214.56251526 363.66398907 C214.31275011 336.18273416 214.0682266 308.70143597 213.82938546 281.2200839 C213.79937823 277.76789742 213.76933059 274.3157113 213.73925781 270.86352539 C213.73327658 270.17683568 213.72729535 269.49014596 213.72113287 268.78264747 C213.63248675 258.61557462 213.54114922 248.44852895 213.44824219 238.28149414 C212.78777231 165.8845923 212.44211979 93.49757711 212.59375 21.09765625 C211.56714925 21.09857804 210.5405485 21.09949984 209.48283863 21.10044956 C175.62398035 21.13048176 141.76511971 21.14920552 107.90625 21.16015625 C106.60232378 21.16059055 105.29839757 21.16102486 103.95495844 21.16147232 C26.14573827 21.18668063 -51.660585 21.05005915 -129.46875 20.59765625 C-131.01402917 20.58869568 -131.01402917 20.58869568 -132.5905261 20.57955408 C-158.19584557 20.43084829 -183.80108842 20.27145585 -209.40625 20.09765625 C-209.40312726 21.04020578 -209.40312726 21.04020578 -209.39994144 22.00179672 C-209.29718974 54.59292234 -209.40786602 87.15009524 -210.27508545 119.73156738 C-210.3913384 124.16075312 -210.49887376 128.59015122 -210.60742188 133.01953125 C-210.8415159 142.50607485 -211.08734869 151.99228657 -211.33730316 161.47842407 C-211.40865391 164.18897863 -211.47967206 166.89954172 -211.55059814 169.61010742 C-211.83397617 180.43933926 -212.11907229 191.26852451 -212.40625 202.09765625 C-213.47842773 202.44320557 -214.55060547 202.78875488 -215.65527344 203.14477539 C-220.82371957 204.81208599 -225.99034707 206.48498378 -231.15625 208.16015625 C-232.10908875 208.46911835 -233.06192749 208.77808044 -234.04364014 209.09640503 C-250.90344287 214.570593 -267.69349699 220.23471243 -284.44433594 226.03344727 C-293.07172597 229.00992496 -301.70438921 231.83646361 -310.47671509 234.35585022 C-316.87185958 236.20169007 -323.13729055 238.3617845 -329.40625 240.59765625 C-337.24351857 243.3547428 -345.06938749 245.96617709 -353.06640625 248.21484375 C-359.09768258 249.93974184 -364.99349652 252.00610272 -370.90625 254.09765625 C-377.46914513 256.41918826 -384.01671067 258.65062242 -390.71875 260.53515625 C-398.05232223 262.59952796 -405.21913837 265.07364775 -412.40625 267.59765625 C-420.19877524 270.33115405 -427.97787145 272.95832128 -435.92138672 275.21484375 C-442.33361998 277.04468755 -448.6817345 279.06175451 -455.03125 281.09765625 C-456.63939575 281.61199219 -456.63939575 281.61199219 -458.2800293 282.13671875 C-462.94630971 283.63601759 -467.60392001 285.1509461 -472.234375 286.7578125 C-473.27924072 287.11842773 -473.27924072 287.11842773 -474.34521484 287.48632812 C-476.13680751 288.10988371 -477.92408086 288.74581235 -479.7109375 289.3828125 C-482.40625 290.09765625 -482.40625 290.09765625 -485.40625 289.09765625 C-484.56984985 288.78127197 -484.56984985 288.78127197 -483.71655273 288.45849609 C-470.1173383 283.31273946 -470.1173383 283.31273946 -456.59375 277.97265625 C-446.8791017 274.061288 -437.11935805 270.2695942 -427.15625 267.03515625 C-422.19267674 265.41398918 -417.42811701 263.4761564 -412.625 261.43359375 C-407.09189445 259.13708635 -401.46590211 257.08797316 -395.84960938 255.00585938 C-392.07436966 253.60259282 -388.30396962 252.18647474 -384.53320312 250.77124023 C-381.42360229 249.60416878 -378.31336967 248.43879187 -375.203125 247.2734375 C-371.71126086 245.96427317 -368.22122241 244.65059057 -364.734375 243.328125 C-358.90751782 241.12166125 -353.08422954 238.96022177 -347.15625 237.03515625 C-342.25320022 235.43375693 -337.5437076 233.52859144 -332.80200195 231.50390625 C-329.28435349 230.04717642 -325.73667842 228.69179516 -322.16796875 227.3671875 C-320.7416492 226.83509499 -319.31538169 226.30286299 -317.88916016 225.77050781 C-317.15167542 225.49557495 -316.41419067 225.22064209 -315.65435791 224.93737793 C-311.94506533 223.55186908 -308.24037826 222.15416175 -304.53515625 220.7578125 C-295.10210308 217.20645253 -285.66255118 213.67258606 -276.21948242 210.14794922 C-274.32429222 209.44039839 -272.42927609 208.73238113 -270.53442383 208.02392578 C-264.8410947 205.89558742 -259.14459269 203.77615458 -253.44332886 201.66915894 C-251.63525025 200.99956695 -249.82820886 200.3271671 -248.02224731 199.65188599 C-245.50329263 198.71071204 -242.98074237 197.77989317 -240.45703125 196.8515625 C-239.71298035 196.57107056 -238.96892944 196.29057861 -238.20233154 196.00158691 C-234.26228803 194.56594909 -231.70267326 194.09765625 -227.40625 194.09765625 C-227.40625 130.40765625 -227.40625 66.71765625 -227.40625 1.09765625 C-149.94486867 0.47312632 -149.94486867 0.47312632 -126.0078125 0.32470703 C-125.17283627 0.31950024 -124.33786004 0.31429345 -123.4775815 0.30892888 C-82.31848657 0.05376314 -41.15979207 -0.00077529 0 0 Z " fill="#B07AE1" transform="translate(518.40625,80.90234375)"/>
<path d="M0 0 C86.13 0 172.26 0 261 0 C261 85.8 261 171.6 261 260 C257.50703992 258.25351996 255.83075819 257.07955884 253.16870117 254.41162109 C252.43080856 253.67680511 251.69291595 252.94198914 250.93266296 252.18490601 C250.14406387 251.3891214 249.35546478 250.59333679 248.54296875 249.7734375 C247.72178055 248.95179108 246.90059235 248.13014465 246.05451965 247.28359985 C244.31644576 245.54250483 242.58080301 243.79898001 240.84741211 242.05322266 C238.2131843 239.40086111 235.57116626 236.75646643 232.92773438 234.11328125 C231.23650896 232.41713538 229.54573921 230.72053502 227.85546875 229.0234375 C227.07294235 228.23979828 226.29041595 227.45615906 225.48417664 226.64877319 C222.04055286 223.17575243 218.67498403 219.68111662 215.48193359 215.9753418 C211.67403475 211.55932564 207.57780464 207.46971735 203.43359375 203.37109375 C202.63647476 202.57776138 201.83935577 201.78442902 201.01808167 200.96705627 C198.49365327 198.45474309 195.96600139 195.94571348 193.4375 193.4375 C190.09992017 190.12664371 186.76575276 186.81240471 183.43359375 183.49609375 C182.29898964 182.37393715 182.29898964 182.37393715 181.14146423 181.22911072 C177.81820404 177.92114543 174.62578681 174.61136746 171.64575195 170.98876953 C169.35343522 167.72823097 169.35343522 167.72823097 166.234375 167.68359375 C161.52474918 169.60043421 157.47491762 172.25308508 153.25 175.0625 C151.27468286 176.34826943 149.29806591 177.63204367 147.3203125 178.9140625 C146.28680664 179.58598633 145.25330078 180.25791016 144.18847656 180.95019531 C138.88383479 184.36043822 133.50453888 187.64716111 128.125 190.9375 C118.61618323 196.76687016 109.14043638 202.64587983 99.68798828 208.56616211 C93.30385302 212.56349296 86.90779983 216.54072385 80.5 220.5 C72.98547644 225.14361402 65.48826225 229.81415955 58 234.5 C39.36665315 246.15399869 20.65117074 257.66282168 1.85624695 269.05387878 C-3.57174913 272.34460537 -8.98891751 275.65281996 -14.40258789 278.96704102 C-18.47892756 281.46172881 -22.55962213 283.94905101 -26.64453125 286.4296875 C-27.62744141 287.02676514 -28.61035156 287.62384277 -29.62304688 288.23901367 C-31.60459329 289.44267097 -33.58635967 290.64596622 -35.56835938 291.84887695 C-40.04841656 294.57318488 -44.51658644 297.31234804 -48.94921875 300.11328125 C-50.06466064 300.81795532 -50.06466064 300.81795532 -51.20263672 301.53686523 C-52.57282216 302.40587547 -53.94049492 303.2788649 -55.30517578 304.15649414 C-59.78295686 307 -59.78295686 307 -62 307 C-62.33 307.99 -62.66 308.98 -63 310 C-64.66799487 310.75817948 -66.34224928 311.50626102 -68.04833984 312.17431641 C-71.80641928 313.76423693 -75.12106876 316.09865306 -78.54492188 318.30273438 C-82.80349896 321 -82.80349896 321 -85 321 C-85.33 321.99 -85.66 322.98 -86 324 C-87.56018171 324.65874339 -89.12448426 325.30868397 -90.703125 325.921875 C-96.94519475 328.85182611 -102.62206888 333.26979981 -108.18359375 337.31640625 C-109.11300781 337.87199219 -110.04242188 338.42757813 -111 339 C-111.99 338.67 -112.98 338.34 -114 338 C-104.96280674 331.27795288 -95.66963174 324.94913275 -86.36181641 318.61083984 C-82.90104203 316.25047295 -79.4500905 313.87594401 -76 311.5 C-71.83344202 308.63147906 -67.66345327 305.76822795 -63.484375 302.91796875 C-55.47441992 297.45349018 -47.49242754 291.95508094 -39.5625 286.375 C-28.51309957 278.60764326 -17.32432807 271.04789576 -6.1383667 263.47952271 C-0.56323229 259.70667043 5.00139188 255.91849535 10.5625 252.125 C11.34415527 251.59205322 12.12581055 251.05910645 12.93115234 250.51000977 C17.01557127 247.72365847 21.09747551 244.93369862 25.17529297 242.13769531 C36.74807426 234.20541233 48.36280349 226.33740772 60 218.5 C62.82900155 216.59381733 65.6578805 214.68745281 68.48675537 212.78108215 C70.42635543 211.47402197 72.36601223 210.16704596 74.3057251 208.8601532 C80.86811646 204.4383128 87.42719155 200.01159007 93.984375 195.58203125 C104.64957058 188.37808714 115.32190463 181.18480857 126 174 C127.37702087 173.0730835 127.37702087 173.0730835 128.78186035 172.12744141 C134.27752673 168.42884338 139.77684487 164.73578337 145.28137207 161.05038452 C146.99459875 159.90242105 148.70677844 158.75289331 150.41784668 157.60171509 C152.773006 156.01777273 155.13203711 154.43977354 157.4921875 152.86328125 C158.18281281 152.39704346 158.87343811 151.93080566 159.58499146 151.45043945 C162.96246855 149.20382799 166.13196752 147.32577069 170 146 C170.4125 146.42410156 170.825 146.84820312 171.25 147.28515625 C172.11625 148.16494141 172.11625 148.16494141 173 149.0625 C173.8353125 149.91521484 173.8353125 149.91521484 174.6875 150.78515625 C176.55159372 152.5705298 178.44185964 154.23261194 180.40625 155.90234375 C187.40185463 161.98382366 193.78715502 168.73346924 200.30029297 175.32080078 C208.95917168 184.08212264 208.95917168 184.08212264 218.10449219 192.32714844 C222.05065936 195.8097782 225.68558265 199.62480147 229.375 203.375 C230.96383525 204.98925662 232.55486903 206.60135326 234.1484375 208.2109375 C234.84114746 208.91524902 235.53385742 209.61956055 236.24755859 210.34521484 C237.91166413 212.07621474 237.91166413 212.07621474 240 213 C240 149.64 240 86.28 240 21 C177.3 21.33 114.6 21.66 50 22 C58.62507476 31.85722829 67.29681984 41.43123166 76.625 50.625 C82.01181519 55.93486068 87.28658202 61.24030471 92.20800781 66.98535156 C95.80264206 71.02662156 99.70939276 74.76992862 103.5625 78.5625 C114.48510577 89.31430662 114.48510577 89.31430662 119 95 C119 95.66 119 96.32 119 97 C117.35185303 97.60473145 117.35185303 97.60473145 115.67041016 98.22167969 C111.55105994 99.73357159 107.43241337 101.24737254 103.31396484 102.76171875 C101.53941341 103.4139236 99.76467755 104.06562691 97.98974609 104.71679688 C95.42235137 105.65880102 92.85564967 106.60267313 90.2890625 107.546875 C89.50947174 107.83246277 88.72988098 108.11805054 87.92666626 108.41229248 C83.95399347 109.8757841 80.00746235 111.38686047 76.08081055 112.9699707 C70.89562853 115.05806395 65.6649674 117.00702942 60.41796875 118.93359375 C59.44193192 119.29340836 58.46589508 119.65322296 57.46028137 120.02394104 C54.36983151 121.16309471 51.27872822 122.30046036 48.1875 123.4375 C31.57546586 129.53893982 31.57546586 129.53893982 15.03442383 135.82910156 C-0.4101041 141.78870861 -15.97482827 147.44268952 -31.5 153.1875 C-35.16203591 154.54278155 -38.82403461 155.89816343 -42.48596191 157.2537384 C-44.74753113 158.09090782 -47.00916478 158.92790318 -49.27087402 159.76469421 C-53.5432308 161.34604415 -57.81522732 162.92772937 -62.078125 164.53442383 C-66.96293939 166.36968628 -71.87281303 168.13536374 -76.78125 169.90625 C-78.30063171 170.45520935 -78.30063171 170.45520935 -79.85070801 171.01525879 C-84.15200401 172.56931924 -88.45370603 174.12225445 -92.75537109 175.67529297 C-95.90997196 176.81438806 -99.06436519 177.95405678 -102.21875 179.09375 C-103.66127136 179.61418884 -103.66127136 179.61418884 -105.13293457 180.1451416 C-110.43590534 182.0611998 -115.72390984 184.01113249 -121 186 C-122.6655521 186.60723254 -124.33210629 187.21172907 -126 187.8125 C-130.69667808 189.51741374 -135.38254793 191.24980069 -140.0625 193 C-140.75230957 193.25797363 -141.44211914 193.51594727 -142.15283203 193.78173828 C-145.91732166 195.19645342 -149.65505035 196.65851282 -153.375 198.1875 C-156.50784243 199.46152259 -159.62265725 200.51119985 -162.875 201.4375 C-167.70724955 202.82572868 -172.24509928 204.70472788 -176.84765625 206.71875 C-180.06349162 208.02580576 -183.30007841 209.13049516 -186.59741211 210.20996094 C-190.66574555 211.5477444 -194.70712497 212.96247186 -198.75 214.375 C-199.62833496 214.68171631 -200.50666992 214.98843262 -201.41162109 215.30444336 C-206.18219603 216.98005852 -210.91865561 218.71229591 -215.625 220.5625 C-221.53445888 222.87888556 -227.52648976 224.89028834 -233.55908203 226.85766602 C-239.63171181 228.84355066 -245.59542594 231.02856276 -251.51953125 233.421875 C-252.60621094 233.86015625 -253.69289062 234.2984375 -254.8125 234.75 C-255.91207031 235.19859375 -257.01164063 235.6471875 -258.14453125 236.109375 C-261 237 -261 237 -264 236 C-259.25791065 233.48948211 -254.52487133 231.38944521 -249.5 229.5 C-245.17324265 227.87186461 -241.06882513 226.11117231 -236.97265625 223.98046875 C-231.74743756 221.38337986 -226.87955661 219 -221 219 C-221 218.34 -221 217.68 -221 217 C-219.948125 216.608125 -218.89625 216.21625 -217.8125 215.8125 C-216.20829672 215.20843056 -214.60413585 214.60424848 -213 214 C-211.96230469 213.61328125 -210.92460937 213.2265625 -209.85546875 212.828125 C-204.41648223 210.77663299 -199.16056392 208.6631113 -194.015625 205.9609375 C-191.60361999 204.81102813 -189.14747269 203.94325164 -186.625 203.0625 C-182.92716825 201.7636748 -179.47825563 200.3053803 -176 198.5 C-171.64228912 196.23814055 -167.21946358 194.58163946 -162.58984375 192.96484375 C-159.62970978 191.86204874 -156.8982147 190.50319496 -154.10424805 189.03979492 C-152.05990354 188.02960079 -150.01659079 187.18248333 -147.890625 186.359375 C-143.10803718 184.46673024 -138.37348477 182.47489718 -133.64453125 180.453125 C-132.87231232 180.12313004 -132.10009338 179.79313507 -131.30447388 179.45314026 C-129.6644547 178.75204545 -128.02450312 178.05079247 -126.38461304 177.34939575 C-111.06381832 170.8008435 -95.69883006 164.37326039 -80.27279663 158.0769043 C-68.42065448 153.23843334 -56.59872737 148.33331695 -44.79705811 143.37301636 C-23.328376 134.3501283 -1.78137767 125.52665894 19.78898621 116.75004578 C30.01146134 112.59029324 40.22777072 108.4155162 50.44241333 104.23657227 C53.22566702 103.09802095 56.00917995 101.96010535 58.79272461 100.82226562 C60.50375328 100.12241976 62.21477251 99.42255083 63.92578125 98.72265625 C64.72739182 98.3951236 65.52900238 98.06759094 66.35490417 97.73013306 C69.84865554 96.300489 73.33821482 94.86306824 76.81396484 93.39013672 C78.44325928 92.70008545 78.44325928 92.70008545 80.10546875 91.99609375 C81.0183667 91.60478271 81.93126465 91.21347168 82.87182617 90.81030273 C85 90 85 90 87 90 C83.03564749 85.36086408 78.9712852 80.91947463 74.61328125 76.6484375 C73 75 73 75 70.5625 72 C68.59271257 69.6939074 66.85802532 67.96015856 64.5703125 66.0390625 C58.86985808 61.10536619 53.61714435 55.72444852 48.3125 50.375 C47.28344047 49.34090959 46.25414493 48.30705398 45.22460938 47.2734375 C43.33227605 45.37302143 41.4415879 43.471024 39.55200195 41.56787109 C37.03981062 39.04005817 34.52116796 36.51885709 32 34 C8.5 10.5 8.5 10.5 6.71484375 8.70703125 C5.63418129 7.63129208 4.54419789 6.56476039 3.44140625 5.51171875 C2.2592885 4.37648386 1.12434153 3.19248344 0 2 C0 1.34 0 0.68 0 0 Z " fill="#954ED5" transform="translate(417,155)"/>
<path d="M0 0 C-0.66902344 0.43828125 -1.33804687 0.8765625 -2.02734375 1.328125 C-8.02603053 5.28967385 -13.94798217 9.34230905 -19.8125 13.5 C-47.47538978 33.10913706 -47.47538978 33.10913706 -61.23828125 42.1796875 C-63.79905224 43.8675507 -66.3438614 45.57779187 -68.88769531 47.29101562 C-80.45941751 55.06409868 -92.23948764 62.51725667 -104 70 C-104.8461084 70.53915039 -105.6922168 71.07830078 -106.56396484 71.63378906 C-119.50849071 79.87682877 -132.57473952 87.91858747 -145.65478516 95.94433594 C-148.90185992 97.93969205 -152.14500026 99.94126845 -155.38671875 101.9453125 C-168.51565988 110.05652857 -181.70352615 118.06031049 -194.95214844 125.97412109 C-195.55828979 126.33642822 -196.16443115 126.69873535 -196.78894043 127.07202148 C-198.51044948 128.10093959 -200.23226994 129.12933662 -201.95410156 130.15771484 C-204.57517156 131.74304621 -207.16314792 133.36720724 -209.7421875 135.01953125 C-213 137 -213 137 -215 137 C-215 137.66 -215 138.32 -215 139 C-215.94875 139.37125 -216.8975 139.7425 -217.875 140.125 C-222.13166478 141.92690104 -225.95844458 144.33525379 -229.86328125 146.79296875 C-232 148 -232 148 -234 148 C-234 148.66 -234 149.32 -234 150 C-237.465 150.99 -237.465 150.99 -241 152 C-241 152.66 -241 153.32 -241 154 C-241.9178125 154.36351562 -242.835625 154.72703125 -243.78125 155.1015625 C-249.23945565 157.44509068 -254.33874957 160.44901822 -259.5 163.375 C-260.6044043 163.99713379 -261.70880859 164.61926758 -262.84667969 165.26025391 C-268.14743263 168.2482676 -273.44073617 171.24940696 -278.734375 174.25 C-302.54609931 187.74597819 -326.47877402 200.88422277 -350.83544922 213.36914062 C-355.13804585 215.58649485 -359.4132847 217.85359451 -363.6875 220.125 C-375.35069821 226.29607918 -387.1660685 232.16468351 -399 238 C-400.11310547 238.55026855 -401.22621094 239.10053711 -402.37304688 239.66748047 C-405.57729269 241.24658167 -408.78731541 242.8131512 -412 244.375 C-413.46904785 245.09901001 -413.46904785 245.09901001 -414.96777344 245.83764648 C-415.8652832 246.27020752 -416.76279297 246.70276855 -417.6875 247.1484375 C-418.47511719 247.53177246 -419.26273437 247.91510742 -420.07421875 248.31005859 C-420.70972656 248.53773926 -421.34523438 248.76541992 -422 249 C-422.66 248.67 -423.32 248.34 -424 248 C-414.87814221 241.04943549 -405.66542061 234.30440491 -396.1796875 227.859375 C-393.39163495 225.96240335 -390.62853022 224.0358514 -387.8828125 222.078125 C-376.36947551 213.88355633 -364.6220554 206.07142803 -352.8125 198.3125 C-352.01019958 197.78533386 -351.20789917 197.25816772 -350.38128662 196.71502686 C-336.29568081 187.46625496 -322.20085468 178.22321437 -307.9375 169.25 C-307.1655127 168.76378174 -306.39352539 168.27756348 -305.59814453 167.77661133 C-303.93840064 166.73209187 -302.27823744 165.68823842 -300.61767578 164.64501953 C-298.81844866 163.51433567 -297.01998769 162.38243204 -295.22216797 161.24951172 C-280.90767946 152.23111721 -266.47960799 143.42355176 -251.94824219 134.75927734 C-247.41869247 132.05640096 -242.89708204 129.340344 -238.375 126.625 C-236.73958907 125.64452169 -235.1041726 124.66405261 -233.46875 123.68359375 C-230.75675738 122.05674176 -228.04783907 120.4251085 -225.34375 118.78515625 C-213.0147473 111.32022217 -200.50018755 104.17317576 -188 97 C-187.05753418 96.45907715 -186.11506836 95.9181543 -185.14404297 95.36083984 C-177.06676793 90.7282201 -168.98062646 86.11200917 -160.8671875 81.54296875 C-159.83682373 80.96240723 -158.80645996 80.3818457 -157.74487305 79.78369141 C-155.76818465 78.67088671 -153.79054618 77.55976724 -151.81176758 76.45068359 C-147.01681085 73.75237119 -142.30800013 70.99314373 -137.71606445 67.95996094 C-135.23459039 66.57183232 -132.80737584 66.21055319 -130 66 C-130 65.34 -130 64.68 -130 64 C-123.5 60 -123.5 60 -119 60 C-119 59.34 -119 58.68 -119 58 C-118.40276123 57.68885254 -117.80552246 57.37770508 -117.19018555 57.05712891 C-114.35574786 55.58015354 -111.52157591 54.10266944 -108.6875 52.625 C-107.63224121 52.07481201 -106.57698242 51.52462402 -105.48974609 50.95776367 C-100.07573484 48.13311543 -94.66613409 45.30076795 -89.26831055 42.4453125 C-85.18418966 40.28671575 -81.0930145 38.14167748 -77 36 C-75.3284082 35.12529053 -75.3284082 35.12529053 -73.62304688 34.23291016 C-57.31263856 25.7115881 -40.91051347 17.37568934 -24.4019165 9.24456787 C-22.55437499 8.33336529 -20.70845584 7.41886564 -18.86419678 6.5010376 C-16.28142188 5.2172787 -13.69257459 3.94672123 -11.1015625 2.6796875 C-10.32496277 2.29101501 -9.54836304 1.90234253 -8.74822998 1.50189209 C-3.34320885 -1.11440295 -3.34320885 -1.11440295 0 0 Z " fill="#AC77DE" transform="translate(468,343)"/>
<path d="M0 0 C5.23751198 4.37662835 10.11612162 8.98304077 14.9230957 13.82543945 C15.68168381 14.58548782 16.44027191 15.34553619 17.22184753 16.12861633 C18.85710546 17.76766011 20.4912078 19.40785746 22.12426186 21.04909706 C24.70636869 23.64402052 27.29163327 26.23576048 29.87773132 28.82670593 C35.35880086 34.31916895 40.83592197 39.81555894 46.3125 45.3125 C52.67673803 51.70031904 59.04257349 58.08652882 65.41261864 64.46855736 C67.96399654 67.02643468 70.51235434 69.58729546 73.06062317 72.14826965 C74.61489409 73.70617085 76.16930432 75.26393308 77.72387695 76.8215332 C78.43504669 77.53786926 79.14621643 78.25420532 79.87893677 78.99224854 C80.85234261 79.96576012 80.85234261 79.96576012 81.84541321 80.9589386 C82.40967671 81.52542272 82.97394022 82.09190683 83.55530262 82.67555714 C84.98254004 84.10575779 84.98254004 84.10575779 87 85 C87 85.66 87 86.32 87 87 C81.92368258 89.63923583 76.93890575 91.8367282 71.5 93.625 C61.10282573 97.1671022 51.03469559 101.48104288 40.92553711 105.76293945 C32.50500691 109.32355253 24.05685732 112.80689076 15.5625 116.1875 C14.70462891 116.52974609 13.84675781 116.87199219 12.96289062 117.22460938 C11.33678056 117.87329 9.71003573 118.52038275 8.08251953 119.16552734 C6.40985966 119.83576784 4.74793079 120.53275965 3.08984375 121.23828125 C1 122 1 122 -2 122 C-2.06890108 97.22135444 -1.91226773 72.44839404 -1.62768555 47.67138672 C-1.57141971 42.75021 -1.521705 37.82898749 -1.47328281 32.9077282 C-1.43455098 29.07833918 -1.39144134 25.24900887 -1.34705925 21.41968155 C-1.32671026 19.60073704 -1.3079852 17.7817736 -1.29092598 15.96279526 C-1.26702018 13.45933043 -1.23698367 10.95601373 -1.20532227 8.45263672 C-1.1995668 7.70705505 -1.19381134 6.96147339 -1.18788147 6.19329834 C-1.11415975 1.11415975 -1.11415975 1.11415975 0 0 Z " fill="#6220A0" transform="translate(348,144)"/>
<path d="M0 0 C-12.79802007 8.67265096 -25.77951055 16.98597967 -39 25 C-40.29067383 25.78262207 -40.29067383 25.78262207 -41.60742188 26.58105469 C-53.14399994 33.54727282 -64.84244051 40.21119208 -76.625 46.75 C-77.26445557 47.1065567 -77.90391113 47.4631134 -78.56274414 47.83047485 C-80.3854008 48.8452403 -82.2115666 49.85335629 -84.0390625 50.859375 C-85.09303223 51.44170898 -86.14700195 52.02404297 -87.23291016 52.62402344 C-89.54663715 53.77455859 -91.4776241 54.52927758 -94 55 C-94 55.66 -94 56.32 -94 57 C-96.97 57.495 -96.97 57.495 -100 58 C-100 58.66 -100 59.32 -100 60 C-105.37743673 63.16931053 -110.73672093 65.79133639 -116.56640625 68.01953125 C-118.95369242 68.98134317 -121.21311595 70.07140696 -123.5 71.25 C-127 73 -127 73 -129 73 C-129 73.66 -129 74.32 -129 75 C-129.65484375 75.29132813 -130.3096875 75.58265625 -130.984375 75.8828125 C-136.12930896 78.19367267 -141.21521071 80.58217713 -146.25 83.125 C-151.24177943 85.64013822 -156.25741411 87.93247448 -161.46875 89.9609375 C-165.90756897 91.69729904 -169.94278377 93.47794666 -174 96 C-176.33333333 97 -178.66666667 98 -181 99 C-181.77214844 99.47695313 -182.54429687 99.95390625 -183.33984375 100.4453125 C-186.18221739 102.10649416 -188.97559238 103.23510103 -192.0625 104.375 C-203.32870007 108.56686004 -203.32870007 108.56686004 -214.1875 113.6875 C-216.67261761 114.84722155 -218.59547679 115.4019788 -221.25 115.9375 C-225.41255826 116.78517329 -229.08956871 118.1593819 -233 119.796875 C-237.52497519 121.61157859 -242.13308182 123.17806016 -246.73779297 124.77709961 C-250.75315758 126.18010683 -254.70234983 127.66306759 -258.625 129.3125 C-262.45133877 130.89151994 -265.88047073 131.64178006 -270 132 C-270 132.66 -270 133.32 -270 134 C-273.96 134.99 -273.96 134.99 -278 136 C-276.77003625 132.31010876 -275.83613057 132.02069911 -272.5625 130.0625 C-268.29219193 127.44220827 -264.10590541 124.74462604 -259.95898438 121.93310547 C-245.13249748 111.89474796 -229.76085935 102.73047871 -214.3125 93.6875 C-213.52883057 93.22529053 -212.74516113 92.76308105 -211.93774414 92.28686523 C-211.21192139 91.86606689 -210.48609863 91.44526855 -209.73828125 91.01171875 C-209.10962158 90.64522217 -208.48096191 90.27872559 -207.83325195 89.90112305 C-205.90997009 88.95574639 -204.07175225 88.51684939 -202 88 C-200.98530635 87.0149128 -199.98603377 86.01377385 -199 85 C-196.87890625 83.8671875 -196.87890625 83.8671875 -194.5625 82.875 C-193.80066406 82.54242188 -193.03882813 82.20984375 -192.25390625 81.8671875 C-190.18023265 81.06934428 -188.16588345 80.48350018 -186 80 C-186 79.34 -186 78.68 -186 78 C-185.44231934 77.75652832 -184.88463867 77.51305664 -184.31005859 77.26220703 C-175.18796775 73.20072559 -166.28030703 68.71581669 -157.35498047 64.24267578 C-154.6118453 62.86840971 -151.86657884 61.49847058 -149.12109375 60.12890625 C-147.3644549 59.25025672 -145.60794002 58.3713593 -143.8515625 57.4921875 C-143.03692535 57.08588104 -142.22228821 56.67957458 -141.38296509 56.26095581 C-137.49073997 54.3068238 -133.71846602 52.27321129 -130 50 C-128.34795544 49.29788106 -126.68076231 48.63028587 -125 48 C-122.32678603 46.96216399 -119.96256525 45.97753915 -117.5 44.5 C-115.12496092 43.07497655 -112.88930429 42.12376135 -110.3125 41.125 C-106.7676627 39.74907797 -103.38265228 38.23660574 -100 36.5 C-95.82973111 34.36224387 -91.60173284 32.56906713 -87.2265625 30.89453125 C-84.99172752 30.04730051 -84.99172752 30.04730051 -82.9609375 28.88671875 C-81 28 -81 28 -77 28 C-77 27.34 -77 26.68 -77 26 C-74.69 25.67 -72.38 25.34 -70 25 C-70 24.34 -70 23.68 -70 23 C-68.7625 22.608125 -67.525 22.21625 -66.25 21.8125 C-62.55971863 20.58623418 -58.99386166 19.18702076 -55.41796875 17.66015625 C-49.3639929 15.11982233 -43.24601146 12.82838829 -37.0625 10.625 C-35.99435059 10.24359863 -34.92620117 9.86219727 -33.82568359 9.46923828 C-30.55283968 8.30593728 -27.27714557 7.15112268 -24 6 C-22.96246582 5.63455078 -21.92493164 5.26910156 -20.85595703 4.89257812 C-17.9495953 3.87476791 -15.03865034 2.87172797 -12.125 1.875 C-11.24593994 1.56771973 -10.36687988 1.26043945 -9.46118164 0.94384766 C-8.65156982 0.6710498 -7.84195801 0.39825195 -7.0078125 0.1171875 C-6.30285645 -0.12402832 -5.59790039 -0.36524414 -4.87158203 -0.61376953 C-3 -1 -3 -1 0 0 Z " fill="#AD78DE" transform="translate(368,354)"/>
<path d="M0 0 C2.24193619 1.3566006 3.87056955 2.81692797 5.71133423 4.68031311 C6.40530304 5.37766068 7.09927185 6.07500824 7.81427002 6.79348755 C8.55293304 7.5456102 9.29159607 8.29773285 10.05264282 9.07264709 C10.81910126 9.8443071 11.58555969 10.6159671 12.37524414 11.41101074 C14.82198209 13.87555772 17.26192926 16.3466867 19.70108032 18.81874084 C22.14823325 21.29348422 24.5968161 23.76676879 27.04833984 26.23718262 C28.57357751 27.77470584 30.0961345 29.31489372 31.61578369 30.85794067 C32.30344818 31.55213608 32.99111267 32.24633148 33.69961548 32.96156311 C34.30488068 33.57508133 34.91014587 34.18859955 35.53375244 34.82070923 C37.03478318 36.35310203 37.03478318 36.35310203 39.07608032 37.25624084 C39.07608032 37.91624084 39.07608032 38.57624084 39.07608032 39.25624084 C38.25018906 39.27907639 37.42429779 39.30191193 36.57337952 39.32543945 C28.67792212 39.54407018 20.7825165 39.76447526 12.8871603 39.98673153 C8.83093692 40.10085643 4.77469847 40.21436377 0.71841431 40.3263092 C-23.01073132 40.96671958 -23.01073132 40.96671958 -46.72764587 41.94921875 C-54.79460123 42.33869638 -62.84965008 42.35378236 -70.92391968 42.25624084 C-66.64167848 37.41544645 -61.69610115 34.55736534 -56.11141968 31.38124084 C-47.76619768 26.54669483 -39.52674045 21.57650395 -31.36141968 16.44374084 C-29.84524048 15.49229187 -29.84524048 15.49229187 -28.2984314 14.5216217 C-25.50598202 12.76799297 -22.71474413 11.01245405 -19.92391968 9.25624084 C-17.36491475 7.64638192 -14.80298988 6.04150613 -12.23641968 4.44374084 C-11.30442749 3.85979553 -10.3724353 3.27585022 -9.41220093 2.67420959 C-2.81188961 -1.08703532 -2.81188961 -1.08703532 0 0 Z " fill="#60209D" transform="translate(578.9239196777344,372.74375915527344)"/>
<path d="M0 0 C0.99 0.33 1.98 0.66 3 1 C3.08040527 1.68924561 3.16081055 2.37849121 3.24365234 3.08862305 C4.96187626 18.23059038 4.96187626 18.23059038 7.125 33.3125 C8.77342566 43.51856368 9.14526332 53.66056071 9.09765625 63.984375 C9.0962413 65.16598206 9.09482635 66.34758911 9.09336853 67.56500244 C9.08782617 71.29336208 9.07528481 75.0216589 9.0625 78.75 C9.05747754 81.29687413 9.05291595 83.8437492 9.04882812 86.390625 C9.0378757 92.59377098 9.02119615 98.796881 9 105 C3.09994683 105.05031533 -2.79997518 105.08614094 -8.70019531 105.10986328 C-10.69761334 105.11977682 -12.69501744 105.13331164 -14.69238281 105.15087891 C-29.86817911 105.2807825 -45.07828817 105.06082259 -60 102 C-61.65891941 101.81989159 -63.32082838 101.66579039 -64.984375 101.53515625 C-65.92023438 101.45716797 -66.85609375 101.37917969 -67.8203125 101.29882812 C-69.75760223 101.14255342 -71.69510242 100.98886397 -73.6328125 100.83789062 C-79.58551704 100.33639565 -85.19719649 99.42682103 -91 98 C-90.505 97.01 -90.505 97.01 -90 96 C-87.75708008 95.4375 -87.75708008 95.4375 -84.76953125 95 C-83.66867187 94.8359668 -82.5678125 94.67193359 -81.43359375 94.50292969 C-79.64115234 94.25397949 -79.64115234 94.25397949 -77.8125 94 C-76.58015625 93.82629883 -75.3478125 93.65259766 -74.078125 93.47363281 C-70.38748007 92.96507186 -66.69479358 92.47740851 -63 92 C-62.05302246 91.87560547 -61.10604492 91.75121094 -60.13037109 91.62304688 C-42.16335796 89.35809787 -24.07170952 89.79971677 -6 90 C-6.01571045 89.22027832 -6.0314209 88.44055664 -6.04760742 87.63720703 C-6.34978614 69.98843967 -5.9255087 52.48498211 -4.6875 34.875 C-4.6285556 33.99297913 -4.56961121 33.11095825 -4.50888062 32.20220947 C-3.76432185 21.24858242 -2.47491016 10.70740271 0 0 Z " fill="#AA76DB" transform="translate(473,459)"/>
<path d="M0 0 C139.92 0 279.84 0 424 0 C425.14844948 70.05541809 425.14844948 70.05541809 425.27039146 100.14976263 C425.28947053 104.59498511 425.31348519 109.04018144 425.33703613 113.48538208 C425.40524122 126.51071786 425.46645002 139.53608474 425.52606201 152.5614624 C425.57317803 162.83711149 425.62238251 173.11274215 425.67754889 183.38835156 C425.70083799 187.76055082 425.72244303 192.13274274 425.73963928 196.50497055 C425.8010868 212.02852715 425.86250816 227.52747603 426.64706993 243.03513336 C427.16605813 253.57067304 427.14466848 264.10238977 427.1328125 274.6484375 C427.13348848 276.81035371 427.13446094 278.97226984 427.13571167 281.13418579 C427.13716788 285.60622907 427.13509744 290.07825208 427.13037109 294.55029297 C427.12459822 300.29244736 427.12801277 306.03455578 427.13394356 311.7767086 C427.13754114 316.21343337 427.13641563 320.65014702 427.13381577 325.0868721 C427.13314817 327.20727163 427.13396908 329.32767217 427.13629532 331.44807053 C427.13881673 334.38386517 427.13499209 337.31958228 427.12939453 340.25537109 C427.13141876 341.13201416 427.13344299 342.00865723 427.13552856 342.91186523 C427.11427874 348.88572126 427.11427874 348.88572126 426 350 C424.40389018 350.09333705 422.80366572 350.11745372 421.20483398 350.11352539 C420.18385117 350.11344986 419.16286835 350.11337433 418.11094666 350.11329651 C417.0005452 350.10813522 415.89014374 350.10297394 414.74609375 350.09765625 C413.61551041 350.0962413 412.48492706 350.09482635 411.32008362 350.09336853 C407.69252935 350.08775019 404.06503576 350.07519458 400.4375 350.0625 C397.98502693 350.05748736 395.5325529 350.05292405 393.08007812 350.04882812 C387.05336455 350.0377748 381.02668661 350.02101884 375 350 C375 349.67 375 349.34 375 349 C378.64542866 348.8237066 382.29137015 348.66108275 385.9375 348.5 C386.92041016 348.45230469 387.90332031 348.40460938 388.91601562 348.35546875 C396.94534272 348.00959004 404.95847285 347.9732486 412.99438477 347.98632812 C414.15107918 347.98731506 415.30777359 347.988302 416.49951935 347.98931885 C419.33301552 347.99187917 422.16650642 347.99546596 425 348 C424.98969254 346.86688983 424.97938507 345.73377966 424.96876526 344.56633282 C424.71900011 317.08507791 424.4744766 289.60377972 424.23563546 262.12242765 C424.20562823 258.67024117 424.17558059 255.21805505 424.14550781 251.76586914 C424.13952658 251.07917943 424.13354535 250.39248971 424.12738287 249.68499122 C424.03873675 239.51791837 423.94739922 229.3508727 423.85449219 219.18383789 C423.19402231 146.78693605 422.84836979 74.39992086 423 2 C421.97339925 2.00092179 420.9467985 2.00184359 419.88908863 2.00279331 C386.03023035 2.03282551 352.17136971 2.05154927 318.3125 2.0625 C317.00857378 2.0629343 315.70464757 2.06336861 314.36120844 2.06381607 C236.55198827 2.08902438 158.745665 1.9524029 80.9375 1.5 C79.39222083 1.49103943 79.39222083 1.49103943 77.8157239 1.48189783 C52.21040443 1.33319204 26.60516158 1.1737996 1 1 C1.00222061 1.6230924 1.00444122 2.24618481 1.00672913 2.8881588 C1.11973925 36.22437543 0.95945281 69.5225283 0.07287598 102.84887695 C-0.05323756 107.6530211 -0.17065555 112.45737959 -0.2890625 117.26171875 C-0.51809976 126.5080252 -0.75578489 135.75408273 -1 145 C-1.33 145 -1.66 145 -2 145 C-2.11346794 114.26588211 -2.05821279 83.54292165 -1.5625 52.8125 C-1.54285187 51.53663025 -1.52320374 50.2607605 -1.50296021 48.94622803 C-1.4447649 45.24141631 -1.38158863 41.53672608 -1.31640625 37.83203125 C-1.29968872 36.78687851 -1.28297119 35.74172577 -1.26574707 34.66490173 C-1.04627459 23.09587556 -0.48214876 11.57157025 0 0 Z " fill="#7D51A6" transform="translate(308,100)"/>
<path d="M0 0 C0.33 0 0.66 0 1 0 C1.33 72.6 1.66 145.2 2 220 C9.92 220 17.84 220 26 220 C26 229.24 26 238.48 26 248 C18.08 248 10.16 248 2 248 C1.67 292.55 1.34 337.1 1 383 C-19.79 383 -40.58 383 -62 383 C-62 382.67 -62 382.34 -62 382 C-41.54 382 -21.08 382 0 382 C0 255.94 0 129.88 0 0 Z " fill="#3F1F5D" transform="translate(752,81)"/>
<path d="M0 0 C27.54613153 -0.16499249 55.0819728 0.12255852 82.625 0.5 C83.49784134 0.51195782 84.37068268 0.52391563 85.26997375 0.53623581 C96.18005045 0.68613695 107.09005424 0.84085958 118 1 C118 1.33 118 1.66 118 2 C107.61769887 2.02354772 97.23540446 2.04112479 86.8530817 2.05181217 C82.02810257 2.0569509 77.20314218 2.06387628 72.37817383 2.07543945 C48.56409082 2.13103704 24.79788552 1.92742917 1 1 C1.00222061 1.80083511 1.00444122 2.60167023 1.00672913 3.42677307 C1.02701997 11.08671891 1.04211762 18.74665118 1.05181217 26.40661716 C1.05696421 30.34180946 1.06391639 34.276979 1.07543945 38.2121582 C1.12668132 56.17023692 1.02610267 74.06344763 0 92 C0.94689697 92.01981934 1.89379395 92.03963867 2.86938477 92.06005859 C27.60851148 92.59042187 52.29479348 93.60812884 77 95 C77 95.33 77 95.66 77 96 C49.3248828 97.2536654 21.70741119 98.39331333 -6 98 C-7.21354716 70.99540524 -8.41813019 44.03694113 -8 17 C-7.67 17 -7.34 17 -7 17 C-6.14429683 29.0186922 -5.70902723 41.01801983 -5.4375 53.0625 C-5.41632111 53.95621307 -5.39514221 54.84992615 -5.37332153 55.77072144 C-5.0485372 69.51603074 -4.86534768 83.25050156 -5 97 C-1.35383329 96.86183041 2.29183074 96.71318466 5.9375 96.5625 C6.97841797 96.52318359 8.01933594 96.48386719 9.09179688 96.44335938 C10.08115234 96.40146484 11.07050781 96.35957031 12.08984375 96.31640625 C13.00628662 96.27974854 13.92272949 96.24309082 14.86694336 96.20532227 C16.9820728 96.22996136 16.9820728 96.22996136 18 95 C11.73 94.67 5.46 94.34 -1 94 C-1.17369987 62.65682308 -0.63608059 31.33617258 0 0 Z " fill="#7F53A8" transform="translate(571,461)"/>
<path d="M0 0 C3.54166678 0.58245071 5.19663626 1.82472784 7.70794678 4.34718323 C8.42864853 5.06376099 9.14935028 5.78033875 9.89189148 6.51863098 C10.67232315 7.30984848 11.45275482 8.10106598 12.25683594 8.91625977 C13.08647354 9.74545929 13.91611115 10.57465881 14.77088928 11.4289856 C17.04258546 13.7024137 19.30748606 15.9823603 21.56954861 18.26536679 C23.93579134 20.65036295 26.31053213 23.0268665 28.68438721 25.40428162 C33.17749586 29.90671465 37.66290246 34.41674038 42.14559674 38.92953962 C47.24970269 44.06717731 52.36232952 49.19629934 57.47569227 54.32472146 C67.99330816 64.87369527 78.50016775 75.43332303 89 86 C86 86 86 86 84.33740807 84.70375824 C83.72940172 84.0916877 83.12139538 83.47961716 82.4949646 82.84899902 C81.79391098 82.15062424 81.09285736 81.45224945 80.37055969 80.73271179 C79.60680527 79.95660049 78.84305084 79.1804892 78.05615234 78.38085938 C77.2477742 77.57131302 76.43939606 76.76176666 75.60652161 75.9276886 C72.92597543 73.23993217 70.25609666 70.54182237 67.5859375 67.84375 C65.73246539 65.98214727 63.87825888 64.12127548 62.02334595 62.2611084 C57.63431915 57.857584 53.25257171 53.44689426 48.87372935 49.03324461 C40.56209059 40.65603695 32.23617964 32.29302918 23.90916824 23.93110657 C21.16706689 21.17497471 18.42877521 18.415101 15.69100952 15.65466309 C14.02243974 13.97607555 12.35379365 12.29756385 10.68505859 10.61914062 C9.91725571 9.84302933 9.14945282 9.06691803 8.35838318 8.26728821 C7.66296921 7.56891342 6.96755524 6.87053864 6.25106812 6.15100098 C5.64381582 5.53893044 5.03656353 4.92685989 4.41090965 4.29624176 C3.19659398 2.88724184 3.19659398 2.88724184 2 3 C1.98969254 3.99969315 1.97938507 4.99938629 1.96876526 6.02937317 C1.86937419 15.62815139 1.7665434 25.22688795 1.66066074 34.82559681 C1.60637733 39.7558674 1.55315125 44.68614382 1.50268555 49.61645508 C1.24789913 74.42079786 0.82320612 99.2075659 0 124 C0.66 124.33 1.32 124.66 2 125 C1.01 125 0.02 125 -1 125 C-1.11954706 93.09747189 -1.01659228 61.21090976 -0.5 29.3125 C-0.48206327 28.20443371 -0.48206327 28.20443371 -0.46376419 27.07398224 C-0.3169699 18.04918457 -0.16248059 9.02452975 0 0 Z " fill="#42156C" transform="translate(346,142)"/>
<path d="M0 0 C0.33 0 0.66 0 1 0 C1.80380987 15.55874573 2.15032559 31.07032562 2.1328125 46.6484375 C2.13348848 48.81035371 2.13446094 50.97226984 2.13571167 53.13418579 C2.13716788 57.60622907 2.13509744 62.07825208 2.13037109 66.55029297 C2.12459822 72.29244736 2.12801277 78.03455578 2.13394356 83.7767086 C2.13754114 88.21343337 2.13641563 92.65014702 2.13381577 97.0868721 C2.13314817 99.20727163 2.13396908 101.32767217 2.13629532 103.44807053 C2.13881673 106.38386517 2.13499209 109.31958228 2.12939453 112.25537109 C2.13141876 113.13201416 2.13344299 114.00865723 2.13552856 114.91186523 C2.11427874 120.88572126 2.11427874 120.88572126 1 122 C-0.59610982 122.09333705 -2.19633428 122.11745372 -3.79516602 122.11352539 C-4.81614883 122.11344986 -5.83713165 122.11337433 -6.88905334 122.11329651 C-7.9994548 122.10813522 -9.10985626 122.10297394 -10.25390625 122.09765625 C-11.38448959 122.0962413 -12.51507294 122.09482635 -13.67991638 122.09336853 C-17.30747065 122.08775019 -20.93496424 122.07519458 -24.5625 122.0625 C-27.01497307 122.05748736 -29.4674471 122.05292405 -31.91992188 122.04882812 C-37.94663545 122.0377748 -43.97331339 122.02101884 -50 122 C-50 121.67 -50 121.34 -50 121 C-46.35457134 120.8237066 -42.70862985 120.66108275 -39.0625 120.5 C-37.58813477 120.42845703 -37.58813477 120.42845703 -36.08398438 120.35546875 C-24.0327501 119.83633866 -12.10469539 120 0 120 C0 80.4 0 40.8 0 0 Z " fill="#8356AD" transform="translate(733,328)"/>
<path d="M0 0 C0.66 0 1.32 0 2 0 C1.67 0.99 1.34 1.98 1 3 C2.32 3.33 3.64 3.66 5 4 C4.40574219 4.27972656 3.81148438 4.55945313 3.19921875 4.84765625 C-2.74664234 7.72349264 -8.2534246 10.98275019 -13.75 14.64453125 C-16 16 -16 16 -18 16 C-18.33 16.99 -18.66 17.98 -19 19 C-20.56018171 19.65874339 -22.12448426 20.30868397 -23.703125 20.921875 C-29.94519475 23.85182611 -35.62206888 28.26979981 -41.18359375 32.31640625 C-42.57771484 33.14978516 -42.57771484 33.14978516 -44 34 C-44.99 33.67 -45.98 33.34 -47 33 C-37.98829795 26.29691376 -28.72226435 19.98431656 -19.44091797 13.66357422 C-15.58077943 11.03274965 -11.72679204 8.39302471 -7.875 5.75 C-7.1941333 5.28424561 -6.5132666 4.81849121 -5.81176758 4.33862305 C-2.76627736 2.34365403 -2.76627736 2.34365403 0 0 Z " fill="#8344BE" transform="translate(350,460)"/>
<path d="M0 0 C0 0.66 0 1.32 0 2 C1.98 2 3.96 2 6 2 C3.34660801 4.65339199 0.45974041 5.16120692 -3.0625 6.125 C-10.63132382 8.27284228 -18.13414268 10.59461687 -25.625 13 C-27.23024536 13.51348999 -27.23024536 13.51348999 -28.86791992 14.03735352 C-33.53621415 15.53704438 -38.19574618 17.05262224 -42.828125 18.66015625 C-43.52470215 18.90056641 -44.2212793 19.14097656 -44.93896484 19.38867188 C-46.73055751 20.01222746 -48.51783086 20.6481561 -50.3046875 21.28515625 C-53 22 -53 22 -56 21 C-55.4423999 20.78907715 -54.8847998 20.5781543 -54.31030273 20.36083984 C-44.05516686 16.47789882 -33.82449 12.55475813 -23.65625 8.44921875 C-18.82948582 6.5360462 -13.96988398 4.7166143 -9.1003418 2.91552734 C-1.23517516 0 -1.23517516 0 0 0 Z " fill="#A16ED0" transform="translate(89,349)"/>
<path d="M0 0 C0.99 0.66 1.98 1.32 3 2 C1.7934375 2.39832031 0.586875 2.79664063 -0.65625 3.20703125 C-2.27086046 3.74210565 -3.88544227 4.27726652 -5.5 4.8125 C-6.29148438 5.07353516 -7.08296875 5.33457031 -7.8984375 5.60351562 C-12.98000132 7.2904282 -17.99514714 9.09763185 -23 11 C-24.72809768 11.62794966 -26.45714975 12.25328433 -28.1875 12.875 C-31.31314801 13.99848467 -34.4061503 15.16327879 -37.48828125 16.40234375 C-38.64714844 16.86769531 -39.80601562 17.33304687 -41 17.8125 C-42.0725 18.25207031 -43.145 18.69164062 -44.25 19.14453125 C-47 20 -47 20 -50 19 C-45.25791065 16.48948211 -40.52487133 14.38944521 -35.5 12.5 C-31.17324265 10.87186461 -27.06882513 9.11117231 -22.97265625 6.98046875 C-17.74743756 4.38337986 -12.87955661 2 -7 2 C-7 1.34 -7 0.68 -7 0 C-3.8195064 -1.06016453 -3.04021693 -1.04507457 0 0 Z " fill="#8243BC" transform="translate(203,372)"/>
<path d="M0 0 C2.3125 1.1875 2.3125 1.1875 7.3125 7.1875 C-3.0825 7.6825 -3.0825 7.6825 -13.6875 8.1875 C-9.86027244 4.36027244 -5.59988658 0.39068976 0 0 Z " fill="#361555" transform="translate(584.6875,321.8125)"/>
<path d="M0 0 C-2.73771518 2.73771518 -5.86338353 3.25436586 -9.5 4.25 C-16.82925735 6.31170028 -24.03026983 8.63717206 -31.19726562 11.20800781 C-36.67446424 13.10851192 -36.67446424 13.10851192 -40 12 C-34.79453693 10.00799157 -29.58701767 8.02167747 -24.375 6.046875 C-21.38525775 4.91333322 -18.40730313 3.76344116 -15.4375 2.578125 C-10.00718452 0.4491945 -5.84328395 -0.44100256 0 0 Z " fill="#8C5DB7" transform="translate(73,358)"/>
<path d="M0 0 C0 1.32 0 2.64 0 4 C-2.91034143 6.78380484 -6.5534613 8.44229245 -10.125 10.25 C-11.70667969 11.06210937 -11.70667969 11.06210937 -13.3203125 11.890625 C-14.20460937 12.25671875 -15.08890625 12.6228125 -16 13 C-16.66 12.67 -17.32 12.34 -18 12 C-15.38084613 9.99224902 -12.75375554 7.99515805 -10.125 6 C-9.00544922 5.14148438 -9.00544922 5.14148438 -7.86328125 4.265625 C-7.14785156 3.72421875 -6.43242188 3.1828125 -5.6953125 2.625 C-5.03547363 2.12226562 -4.37563477 1.61953125 -3.69580078 1.1015625 C-2 0 -2 0 0 0 Z " fill="#9E6CCD" transform="translate(62,579)"/>
<path d="M0 0 C0.99 0.33 1.98 0.66 3 1 C3.95261487 5.76307437 4.08333357 10.1666528 4 15 C3.67 15 3.34 15 3 15 C2.34 11.37 1.68 7.74 1 4 C0.01 10.27 -0.98 16.54 -2 23 C-2.33 23 -2.66 23 -3 23 C-3.48350422 15.10276444 -1.67664721 7.66467297 0 0 Z " fill="#6F4696" transform="translate(473,459)"/>
<path d="M0 0 C-0.33 0.66 -0.66 1.32 -1 2 C2.3 2.66 5.6 3.32 9 4 C5.43392453 4.89151887 4.25732217 5.07903829 0.890625 4.44140625 C0.13652344 4.30283203 -0.61757813 4.16425781 -1.39453125 4.02148438 C-2.17183594 3.87001953 -2.94914062 3.71855469 -3.75 3.5625 C-4.93916016 3.34110352 -4.93916016 3.34110352 -6.15234375 3.11523438 C-8.10297246 2.75096034 -10.0516893 2.37647488 -12 2 C-11.67 1.34 -11.34 0.68 -11 0 C-7.08234111 -0.81309902 -3.82092412 -1.37553268 0 0 Z " fill="#895BB4" transform="translate(394,555)"/>
<path d="M0 0 C0.66 0.33 1.32 0.66 2 1 C1.67 1.66 1.34 2.32 1 3 C2.32 3.33 3.64 3.66 5 4 C2.69 4.33 0.38 4.66 -2 5 C-2 5.66 -2 6.32 -2 7 C-4.64 7.66 -7.28 8.32 -10 9 C-8.77946141 5.33838422 -7.63217696 4.83729526 -4.4375 2.8125 C-3.61121094 2.28269531 -2.78492187 1.75289063 -1.93359375 1.20703125 C-1.29550781 0.80871094 -0.65742187 0.41039062 0 0 Z " fill="#8255AC" transform="translate(100,481)"/>
<path d="M0 0 C0.66 0.66 1.32 1.32 2 2 C-0.42941953 3.70029485 -2.86728412 5.38520316 -5.3125 7.0625 C-6.34793945 7.79049805 -6.34793945 7.79049805 -7.40429688 8.53320312 C-8.07138672 8.98759766 -8.73847656 9.44199219 -9.42578125 9.91015625 C-10.03848877 10.33433838 -10.65119629 10.75852051 -11.2824707 11.19555664 C-13 12 -13 12 -16 11 C-14.27278316 9.72651788 -12.54313762 8.45632943 -10.8125 7.1875 C-9.84957031 6.47980469 -8.88664062 5.77210938 -7.89453125 5.04296875 C-5.3220667 3.22731563 -2.72279516 1.57792699 0 0 Z " fill="#5A2B86" transform="translate(319,482)"/>
<path d="M0 0 C0 0.66 0 1.32 0 2 C1.98 2 3.96 2 6 2 C3.42853943 4.57146057 1.3949583 4.80117997 -2.125 5.625 C-3.22070312 5.88539063 -4.31640625 6.14578125 -5.4453125 6.4140625 C-6.28835937 6.60742188 -7.13140625 6.80078125 -8 7 C-8 6.01 -8 5.02 -8 4 C-8.66 3.67 -9.32 3.34 -10 3 C-8.70990357 2.49596232 -7.41786211 1.99690074 -6.125 1.5 C-5.04605469 1.08234375 -5.04605469 1.08234375 -3.9453125 0.65625 C-2 0 -2 0 0 0 Z " fill="#9967C7" transform="translate(89,349)"/>
<path d="M0 0 C0.61053223 0.34554932 1.22106445 0.69109863 1.85009766 1.04711914 C-1.04451453 2.03002484 -3.94048314 3.00855615 -6.83740234 3.98461914 C-7.65402344 4.26241211 -8.47064453 4.54020508 -9.31201172 4.82641602 C-13.23443674 6.14447787 -17.05120749 7.387655 -21.14990234 8.04711914 C-18.70028699 5.16183394 -16.32837709 4.18695923 -12.77490234 2.98461914 C-8.5968202 1.55378942 -8.5968202 1.55378942 -4.54833984 -0.19897461 C-2.14990234 -0.95288086 -2.14990234 -0.95288086 0 0 Z " fill="#683398" transform="translate(174.14990234375,383.952880859375)"/>
<path d="M0 0 C-1.95739042 1.3139058 -3.91594125 2.62608302 -5.875 3.9375 C-6.96554687 4.66839844 -8.05609375 5.39929688 -9.1796875 6.15234375 C-12 8 -12 8 -14 9 C-14.33 7.68 -14.66 6.36 -15 5 C-13.06891037 3.96709159 -11.129882 2.94901328 -9.1875 1.9375 C-8.10855469 1.36902344 -7.02960938 0.80054688 -5.91796875 0.21484375 C-3 -1 -3 -1 0 0 Z " fill="#8255AC" transform="translate(468,343)"/>
<path d="M0 0 C0.66 0 1.32 0 2 0 C1.67 0.99 1.34 1.98 1 3 C4.63 3.33 8.26 3.66 12 4 C12 4.33 12 4.66 12 5 C6.39 5 0.78 5 -5 5 C-3.35 3.35 -1.7 1.7 0 0 Z " fill="#521B85" transform="translate(513,410)"/>
<path d="M0 0 C0.680625 0.268125 1.36125 0.53625 2.0625 0.8125 C0.42880142 4.07989717 -2.64644675 4.52954704 -5.9375 5.8125 C-7.26026056 6.18558631 -8.58982077 6.54296415 -9.9375 6.8125 C-9.9375 6.1525 -9.9375 5.4925 -9.9375 4.8125 C-6.92976152 1.87410419 -4.27580632 -0.27292381 0 0 Z " fill="#733AA7" transform="translate(329.9375,476.1875)"/>
<path d="M0 0 C0.66 0.33 1.32 0.66 2 1 C1 4 1 4 -0.77734375 5.203125 C-1.49019531 5.54859375 -2.20304687 5.8940625 -2.9375 6.25 C-4.00291016 6.78367187 -4.00291016 6.78367187 -5.08984375 7.328125 C-6.03537109 7.66070313 -6.03537109 7.66070313 -7 8 C-7.66 7.67 -8.32 7.34 -9 7 C-6.03 4.69 -3.06 2.38 0 0 Z " fill="#8356AD" transform="translate(53,584)"/>
<path d="M0 0 C-1.32 0.33 -2.64 0.66 -4 1 C-4 1.99 -4 2.98 -4 4 C-6.97 4 -9.94 4 -13 4 C-10.56272708 2.37515139 -8.62713877 1.34310925 -5.9375 0.3125 C-5.24527344 0.04050781 -4.55304688 -0.23148437 -3.83984375 -0.51171875 C-2 -1 -2 -1 0 0 Z " fill="#3A185B" transform="translate(423,295)"/>
<path d="M0 0 C-1 3 -1 3 -3.9375 4.75 C-5.4534375 5.36875 -5.4534375 5.36875 -7 6 C-7.66 5.67 -8.32 5.34 -9 5 C-4.32258065 0 -4.32258065 0 0 0 Z " fill="#8746C3" transform="translate(337,472)"/>
<path d="M0 0 C0.66 0 1.32 0 2 0 C1.67 0.99 1.34 1.98 1 3 C2.32 3.33 3.64 3.66 5 4 C-0.75 7 -0.75 7 -3 7 C-1.125 1.125 -1.125 1.125 0 0 Z " fill="#7D40B5" transform="translate(350,460)"/>
<path d="M0 0 C0 0.99 0 1.98 0 3 C-2.31 3.33 -4.62 3.66 -7 4 C-6.67 3.01 -6.34 2.02 -6 1 C-4.02 0.67 -2.04 0.34 0 0 Z " fill="#8A48C7" transform="translate(193,375)"/>
<path d="M0 0 C2.97 0.495 2.97 0.495 6 1 C5.67 1.66 5.34 2.32 5 3 C2.4375 3.625 2.4375 3.625 0 4 C0 2.68 0 1.36 0 0 Z " fill="#7B3EB2" transform="translate(182,378)"/>
<path d="M0 0 C-0.33 0.66 -0.66 1.32 -1 2 C-3.5625 2.625 -3.5625 2.625 -6 3 C-6 2.34 -6 1.68 -6 1 C-7.32 0.67 -8.64 0.34 -10 0 C-6.30581799 -1.231394 -3.7943739 -0.64432764 0 0 Z " fill="#7A3EB1" transform="translate(199,375)"/>
</svg>
