<?xml version="1.0" encoding="UTF-8"?>
<svg version="1.1" xmlns="http://www.w3.org/2000/svg" width="800" height="640">
<path d="M0 0 C264 0 528 0 800 0 C800 211.2 800 422.4 800 640 C536 640 272 640 0 640 C0 428.8 0 217.6 0 0 Z " fill="#2A0F44" transform="translate(0,0)"/>
<path d="M0 0 C33.66 0 67.32 0 102 0 C102 33.66 102 67.32 102 102 C97.93029431 99.96514716 95.30602872 97.57206872 92.1875 94.375 C91.6505249 93.83157959 91.1135498 93.28815918 90.56030273 92.72827148 C87.79997876 89.91453535 85.12011936 87.06352574 82.5625 84.0625 C79.27589897 80.2484198 75.86001348 76.57000674 72.375 72.9375 C71.54850952 72.04140015 71.54850952 72.04140015 70.70532227 71.12719727 C67.69645667 67.95227896 67.69645667 67.95227896 63.6328125 66.80078125 C59.68167502 68.60048334 56.12604586 70.87153763 52.5 73.25 C50.78579079 74.35385061 49.07092389 75.45668039 47.35546875 76.55859375 C46.47036621 77.1294873 45.58526367 77.70038086 44.67333984 78.28857422 C40.41722478 81.01326523 36.11533002 83.6624343 31.8125 86.3125 C21.07517946 92.94209993 10.37502427 99.63047602 -0.32177734 106.32519531 C-2.64666079 107.77904221 -4.97307272 109.23037006 -7.30078125 110.6796875 C-8.57552698 111.47394846 -9.85026681 112.26821891 -11.125 113.0625 C-11.73029541 113.43906738 -12.33559082 113.81563477 -12.95922852 114.20361328 C-16.90325753 116.66536054 -20.81956545 119.16735244 -24.7265625 121.6875 C-26.22098877 122.64837524 -26.22098877 122.64837524 -27.74560547 123.62866211 C-29.71384208 124.89555648 -31.6791335 126.16704093 -33.64111328 127.44360352 C-34.98665283 128.30876587 -34.98665283 128.30876587 -36.359375 129.19140625 C-37.15827148 129.70904541 -37.95716797 130.22668457 -38.78027344 130.76000977 C-40.88522292 131.93588289 -42.64377651 132.55290962 -45 133 C-41.4873007 129.28098313 -37.95861435 126.4491283 -33.65234375 123.62890625 C-33.04754181 123.22988602 -32.44273987 122.83086578 -31.8196106 122.41975403 C-30.52931647 121.56902525 -29.23736109 120.72081149 -27.94387817 119.87493896 C-24.54540633 117.65188504 -21.15965698 115.40962451 -17.7734375 113.16796875 C-17.10174026 112.72382629 -16.43004303 112.27968384 -15.73799133 111.82208252 C-9.38066698 107.60927514 -3.12200241 103.26334171 3.09204102 98.84204102 C8.23580807 95.19259893 13.46117419 91.67533708 18.71612549 88.18885803 C23.26523874 85.16702659 27.78985071 82.11110462 32.30378723 79.0369873 C35.72216481 76.71106701 39.14797665 74.39622832 42.57446289 72.08227539 C44.3391379 70.8870844 46.10079204 69.68742273 47.85961914 68.48364258 C50.43376007 66.72333402 53.01828898 64.97934927 55.60546875 63.23828125 C56.39084518 62.69577225 57.17622162 62.15326324 57.98539734 61.59431458 C58.71748917 61.10597641 59.44958099 60.61763824 60.20385742 60.11450195 C60.84256271 59.68055618 61.48126801 59.24661041 62.139328 58.79951477 C64 58 64 58 66.07316589 58.2240448 C69.20141552 59.48382194 71.27075542 61.92696818 73.5703125 64.3125 C74.35376541 65.10587769 74.35376541 65.10587769 75.15304565 65.9152832 C76.81762016 67.60323228 78.4716919 69.3010204 80.125 71 C81.78714503 72.69720328 83.45140889 74.39225116 85.11837769 76.0847168 C86.15440178 77.13772292 87.18732425 78.19379141 88.21682739 79.25317383 C90.84170537 81.9748255 90.84170537 81.9748255 94 84 C93.67 59.25 93.34 34.5 93 9 C68.58 8.67 44.16 8.34 19 8 C25.53869998 15.99174442 32.00024962 23.16226784 39.39648438 30.23046875 C40.12287109 30.93816406 40.84925781 31.64585937 41.59765625 32.375 C42.25258057 33.00148437 42.90750488 33.62796875 43.58227539 34.2734375 C45 36 45 36 45 39 C44.01 39 43.02 39 42 39 C42 39.66 42 40.32 42 41 C40.58460938 41.45439453 40.58460938 41.45439453 39.140625 41.91796875 C31.91853234 44.2645107 24.85260093 46.76408286 17.87890625 49.7890625 C14.2945951 51.29671034 10.64089869 52.63466299 7 54 C6.67 62.25 6.34 70.5 6 79 C9.3 77.35 12.6 75.7 16 74 C16.66 74 17.32 74 18 74 C18 74.66 18 75.32 18 76 C16.26314859 77.26632258 14.45295036 78.43164935 12.625 79.5625 C11.33621917 80.36946637 10.04855495 81.17821747 8.76171875 81.98828125 C8.01970215 82.45443848 7.27768555 82.9205957 6.51318359 83.40087891 C2.01538946 86.26279376 -2.42587777 89.21113799 -6.87850952 92.14260864 C-18.78948265 99.97525904 -30.81356093 107.60194563 -43 115 C-43.9885498 115.60054199 -44.97709961 116.20108398 -45.99560547 116.81982422 C-59.41672477 124.95720338 -72.92489855 132.92187141 -86.59277344 140.63769531 C-88.9961982 141.99784847 -91.39320904 143.36874943 -93.7890625 144.7421875 C-95.25509018 145.57833219 -96.72122958 146.41428104 -98.1875 147.25 C-99.18632202 147.82500244 -99.18632202 147.82500244 -100.20532227 148.41162109 C-104.77230024 151 -104.77230024 151 -107 151 C-107 151.66 -107 152.32 -107 153 C-107.556875 153.24234375 -108.11375 153.4846875 -108.6875 153.734375 C-112.6589603 155.47859743 -116.57866096 157.26747719 -120.4375 159.25 C-124 161 -124 161 -126 161 C-126 161.66 -126 162.32 -126 163 C-128.43218059 164.19963643 -130.86970578 165.38484438 -133.3125 166.5625 C-134.00279297 166.90474609 -134.69308594 167.24699219 -135.40429688 167.59960938 C-140.66015625 170.11328125 -140.66015625 170.11328125 -144 169 C-126.08339603 154.85531266 -106.48968829 142.82779543 -87 131 C-86.08541016 130.44199707 -85.17082031 129.88399414 -84.22851562 129.30908203 C-81.48874743 127.63843354 -78.74524889 125.97412446 -76 124.3125 C-75.16887695 123.80686523 -74.33775391 123.30123047 -73.48144531 122.78027344 C-69.73933744 120.53004612 -66.14977594 118.43066872 -62 117 C-62 116.34 -62 115.68 -62 115 C-76.355 115.495 -76.355 115.495 -91 116 C-91.495 117.485 -91.495 117.485 -92 119 C-94.59828991 120.02626519 -97.07525042 120.86213128 -99.75 121.625 C-100.46671875 121.8415625 -101.1834375 122.058125 -101.921875 122.28125 C-105.58876934 123.37322956 -109.22804805 124.3317408 -113 125 C-113.33 125.99 -113.66 126.98 -114 128 C-116.70123724 129.04119351 -119.28814435 129.90328845 -122.0625 130.6875 C-123.20041992 131.02491211 -123.20041992 131.02491211 -124.36132812 131.36914062 C-126.23766304 131.9237805 -128.11844855 132.46332298 -130 133 C-128.8750171 129.62505131 -128.46880319 129.38289526 -125.5625 127.65234375 C-124.48210449 127.00023926 -124.48210449 127.00023926 -123.37988281 126.33496094 C-122.59452148 125.87379883 -121.80916016 125.41263672 -121 124.9375 C-119.77168457 124.20515137 -119.77168457 124.20515137 -118.51855469 123.45800781 C-116.82239439 122.44815515 -115.12412864 121.44183088 -113.42382812 120.43896484 C-111.29426809 119.17469945 -109.18316508 117.88652481 -107.078125 116.58203125 C-97.79046274 110.88535979 -88.1576433 105.90719429 -78.4375 101 C-77.78261597 100.66649536 -77.12773193 100.33299072 -76.45300293 99.98937988 C-69.73841415 96.57922964 -63.3882376 93.60732981 -56 92 C-55.67 91.34 -55.34 90.68 -55 90 C-52.9609375 89 -52.9609375 89 -50.375 88 C-49.11816406 87.505 -49.11816406 87.505 -47.8359375 87 C-45.79021615 86.27864371 -43.71254904 85.64576494 -41.62109375 85.0703125 C-37.16968765 83.75457866 -33.04192003 81.92848659 -28.81054688 80.03515625 C-24.19385006 78 -24.19385006 78 -22 78 C-22 73.71 -22 69.42 -22 65 C-30.05684549 67.11629497 -30.05684549 67.11629497 -37.5703125 70.546875 C-40.28397228 72.16983551 -42.60426845 72.77474929 -45.6875 73.4375 C-51.40468276 74.7773551 -56.60416809 76.71890977 -62 79 C-66.10718102 80.61050813 -70.23809792 82.08613532 -74.4375 83.4375 C-77.44898549 84.42596378 -80.3097484 85.54803676 -83.1875 86.875 C-87.16932289 88.68300085 -91.21384786 90.2909463 -95.3125 91.8125 C-96.48425781 92.25207031 -97.65601563 92.69164062 -98.86328125 93.14453125 C-101.87262521 93.96526142 -103.1628621 94.14186044 -106 93 C-100.75266143 90.15769161 -95.38801324 87.91409814 -89.8125 85.8125 C-88.77899414 85.41973877 -88.77899414 85.41973877 -87.72460938 85.01904297 C-84.17694867 83.70111964 -80.73982831 82.60272961 -77 82 C-77 81.34 -77 80.68 -77 80 C-73.535 79.505 -73.535 79.505 -70 79 C-70 78.34 -70 77.68 -70 77 C-68.75336669 76.49166409 -67.50250613 75.99368855 -66.25 75.5 C-65.55390625 75.2215625 -64.8578125 74.943125 -64.140625 74.65625 C-62 74 -62 74 -58 74 C-58 73.34 -58 72.68 -58 72 C-56.28490234 71.49339844 -56.28490234 71.49339844 -54.53515625 70.9765625 C-53.04414843 70.52644693 -51.55326959 70.07590397 -50.0625 69.625 C-49.30775391 69.40328125 -48.55300781 69.1815625 -47.77539062 68.953125 C-45.83152088 68.36037548 -43.91313548 67.68548828 -42 67 C-41.67 66.34 -41.34 65.68 -41 65 C-38.77734375 64.2890625 -38.77734375 64.2890625 -35.9375 63.625 C-31.61901542 62.51897885 -27.99055914 61.13278027 -24.08203125 59.03125 C-21.67031323 57.83670299 -19.22685894 56.95325108 -16.6875 56.0625 C-11.87917341 54.36895956 -7.2977247 52.36301797 -2.67578125 50.21875 C2.56019324 47.83389739 7.9269794 45.78657165 13.3046875 43.74609375 C14.44164062 43.31425781 15.57859375 42.88242188 16.75 42.4375 C17.79671875 42.04433594 18.8434375 41.65117187 19.921875 41.24609375 C23.05843197 40.03575795 23.05843197 40.03575795 26.140625 38.34765625 C29 37 29 37 33 37 C30.4893454 32.16460165 27.00091046 28.7760195 23.14453125 25.01953125 C22.15207649 24.03843636 22.15207649 24.03843636 21.13957214 23.03752136 C19.03531199 20.95761466 16.92472613 18.88431456 14.8125 16.8125 C12.02168305 14.07467923 9.23741034 11.33044683 6.45703125 8.58203125 C5.48682793 7.63672295 5.48682793 7.63672295 4.49702454 6.6723175 C2.95995389 5.15243063 1.47437422 3.58077922 0 2 C0 1.34 0 0.68 0 0 Z " fill="#2E1149" transform="translate(413,184)"/>
<path d="M0 0 C60.06 0 120.12 0 182 0 C182 49.83 182 99.66 182 151 C155.56674436 151 155.56674436 151 146.25390625 150.78125 C145.22103989 150.75905396 144.18817352 150.73685791 143.12400818 150.71398926 C139.93678259 150.64498089 136.74964591 150.5725846 133.5625 150.5 C131.35482272 150.45159386 129.14714042 150.40341586 126.93945312 150.35546875 C121.62624175 150.23959283 116.31309787 150.12096327 111 150 C111.00580078 151.09884521 111.01160156 152.19769043 111.01757812 153.32983398 C111.0480171 161.590563 110.98488088 169.81297252 110.5 178.0625 C110.45230469 178.93970703 110.40460938 179.81691406 110.35546875 180.72070312 C110.24107929 182.81403016 110.12120459 184.9070565 110 187 C114.62 187 119.24 187 124 187 C124 187.33 124 187.66 124 188 C118.72 188 113.44 188 108 188 C108 174.14 108 160.28 108 146 C130.11 146 152.22 146 175 146 C175 100.46 175 54.92 175 8 C119.56 8 64.12 8 7 8 C7 15.92 7 23.84 7 32 C6.94508783 36.21071221 6.88307262 40.41595655 6.78125 44.625 C6.75905396 45.63425537 6.73685791 46.64351074 6.71398926 47.68334961 C6.64513968 50.78896172 6.57267523 53.89447534 6.5 57 C6.45157798 59.15494243 6.40340008 61.30989035 6.35546875 63.46484375 C6.23977299 68.64329645 6.12084496 73.82166502 6 79 C5.25427734 79.25692627 4.50855469 79.51385254 3.74023438 79.77856445 C0.32643937 80.95543373 -3.08678362 82.13395366 -6.5 83.3125 C-7.67304688 83.71662109 -8.84609375 84.12074219 -10.0546875 84.53710938 C-11.20195312 84.93349609 -12.34921875 85.32988281 -13.53125 85.73828125 C-15.10229492 86.28029175 -15.10229492 86.28029175 -16.70507812 86.83325195 C-19.1010731 87.68168556 -21.47582555 88.55625701 -23.8503418 89.46069336 C-28.14452405 91.07938591 -32.49196907 92.49622296 -36.86328125 93.890625 C-38.57360478 94.44129111 -40.28388995 94.99207641 -41.99414062 95.54296875 C-44.63434216 96.39107615 -47.27491396 97.23798233 -49.91625977 98.08251953 C-60.24166406 101.38750684 -70.48937028 104.82112074 -80.63752747 108.64007568 C-97.54547886 115 -97.54547886 115 -103 115 C-103 114.34 -103 113.68 -103 113 C-101.83984375 112.62488281 -100.6796875 112.24976563 -99.484375 111.86328125 C-91.44794944 109.23967033 -83.56504481 106.51363627 -75.80078125 103.15234375 C-71.86982472 101.53500459 -67.84365187 100.27051792 -63.80078125 98.96484375 C-61.28346101 98.09764975 -58.91387161 97.11777478 -56.5 96 C-52.05326381 93.94207309 -47.48357336 92.44055653 -42.828125 90.92578125 C-37.99105619 89.34237613 -33.28067007 87.54549781 -28.59765625 85.55078125 C-20.77816809 82.25114684 -13.51748822 79.91995217 -5 79 C-5 78.34 -5 77.68 -5 77 C-3.35 76.67 -1.7 76.34 0 76 C0 50.92 0 25.84 0 0 Z " fill="#AA75DB" transform="translate(362,155)"/>
<path d="M0 0 C1.966427 2.9496405 2.30505229 3.90318837 2.6328125 7.25390625 C2.7167627 8.10057861 2.80071289 8.94725098 2.88720703 9.81958008 C2.96567871 10.72474365 3.04415039 11.62990723 3.125 12.5625 C3.20991699 13.48893311 3.29483398 14.41536621 3.38232422 15.36987305 C4.13680479 24.27562812 4.14527145 33.06580584 4 42 C-1.61 42 -7.22 42 -13 42 C-13.12510513 49.07594613 -13.21504099 56.15122588 -13.2746582 63.22802734 C-13.29955286 65.6272302 -13.33348131 68.02635925 -13.37719727 70.42529297 C-13.63811859 85.12897716 -13.04501091 98.09692822 -8 112 C-7.51794537 110.7383279 -7.03816556 109.47578651 -6.55932617 108.21289062 C-6.29190109 107.50990845 -6.02447601 106.80692627 -5.74894714 106.0826416 C-4.73552777 103.26456645 -4.00727201 100.41142556 -3.3125 97.5 C-2.93544922 95.93765625 -2.93544922 95.93765625 -2.55078125 94.34375 C-2.36902344 93.5703125 -2.18726563 92.796875 -2 92 C1.3 92 4.6 92 8 92 C7.64594493 96.7797435 6.88752403 100.58209956 5 105 C3.67644519 108.10252634 2.74717915 110.76465177 2.4375 114.125 C2.01361837 117.87938011 1.14468644 120.68985882 -0.28125 124.140625 C-1.16718644 126.3186399 -1.16718644 126.3186399 -2 130 C-5.3 130 -8.6 130 -12 130 C-12.42152344 128.78441406 -12.84304688 127.56882812 -13.27734375 126.31640625 C-13.83057808 124.73171808 -14.38397172 123.14708552 -14.9375 121.5625 C-15.21529297 120.76005859 -15.49308594 119.95761719 -15.77929688 119.13085938 C-16.18051758 117.98520508 -16.18051758 117.98520508 -16.58984375 116.81640625 C-16.83597412 116.10943604 -17.08210449 115.40246582 -17.33569336 114.67407227 C-17.87467975 112.99317368 -17.87467975 112.99317368 -19 112 C-21.88759001 117.90643412 -22.95797716 123.50739614 -24 130 C-27.63 130 -31.26 130 -35 130 C-37.90743595 121.69139845 -40.45321314 113.50628694 -42.30859375 104.88671875 C-42.9342124 102.27467253 -43.70948339 99.87235404 -44.6875 97.375 C-46 94 -46 94 -46 91 C-45.01 91 -44.02 91 -43 91 C-43.00222061 90.21295181 -43.00444122 89.42590363 -43.00672913 88.61500549 C-43.02673113 81.2130967 -43.04197366 73.81120092 -43.05181217 66.40927219 C-43.0570402 62.60348423 -43.06413638 58.79771852 -43.07543945 54.99194336 C-43.0862712 51.32207456 -43.09227744 47.65222722 -43.09487724 43.98234367 C-43.09673097 42.57925008 -43.1003506 41.17615771 -43.10573006 39.7730732 C-43.11294419 37.8143032 -43.11340809 35.8555118 -43.11352539 33.89672852 C-43.115746 32.77976089 -43.11796661 31.66279327 -43.12025452 30.51197815 C-43 28 -43 28 -42 27 C-40.00035018 26.91241997 -37.9976389 26.89303424 -35.99609375 26.90234375 C-34.78115234 26.90556641 -33.56621094 26.90878906 -32.31445312 26.91210938 C-31.03505859 26.92048828 -29.75566406 26.92886719 -28.4375 26.9375 C-27.15423828 26.94201172 -25.87097656 26.94652344 -24.54882812 26.95117188 C-21.36583978 26.96300455 -18.18294238 26.97948932 -15 27 C-15 29.64 -15 32.28 -15 35 C-11.04 35 -7.08 35 -3 35 C-3.04125 33.411875 -3.0825 31.82375 -3.125 30.1875 C-3.13190676 24.40653793 -2.67127283 18.74166013 -2.0625 13 C-1.97564941 12.1752417 -1.88879883 11.3504834 -1.79931641 10.50073242 C-1.40047304 6.91372242 -0.93520895 3.49222974 0 0 Z " fill="#2C1046" transform="translate(434,304)"/>
<path d="M0 0 C33.66 0 67.32 0 102 0 C102 33.66 102 67.32 102 102 C97.93029431 99.96514716 95.30602872 97.57206872 92.1875 94.375 C91.6505249 93.83157959 91.1135498 93.28815918 90.56030273 92.72827148 C87.79997876 89.91453535 85.12011936 87.06352574 82.5625 84.0625 C79.27589897 80.2484198 75.86001348 76.57000674 72.375 72.9375 C71.54850952 72.04140015 71.54850952 72.04140015 70.70532227 71.12719727 C67.69645667 67.95227896 67.69645667 67.95227896 63.6328125 66.80078125 C59.68167502 68.60048334 56.12604586 70.87153763 52.5 73.25 C50.78579079 74.35385061 49.07092389 75.45668039 47.35546875 76.55859375 C46.47036621 77.1294873 45.58526367 77.70038086 44.67333984 78.28857422 C40.41722478 81.01326523 36.11533002 83.6624343 31.8125 86.3125 C21.07517946 92.94209993 10.37502427 99.63047602 -0.32177734 106.32519531 C-2.64666079 107.77904221 -4.97307272 109.23037006 -7.30078125 110.6796875 C-8.57552698 111.47394846 -9.85026681 112.26821891 -11.125 113.0625 C-11.73029541 113.43906738 -12.33559082 113.81563477 -12.95922852 114.20361328 C-16.90325753 116.66536054 -20.81956545 119.16735244 -24.7265625 121.6875 C-26.22098877 122.64837524 -26.22098877 122.64837524 -27.74560547 123.62866211 C-29.71384208 124.89555648 -31.6791335 126.16704093 -33.64111328 127.44360352 C-34.98665283 128.30876587 -34.98665283 128.30876587 -36.359375 129.19140625 C-37.15827148 129.70904541 -37.95716797 130.22668457 -38.78027344 130.76000977 C-40.88522292 131.93588289 -42.64377651 132.55290962 -45 133 C-41.4873007 129.28098313 -37.95861435 126.4491283 -33.65234375 123.62890625 C-33.04754181 123.22988602 -32.44273987 122.83086578 -31.8196106 122.41975403 C-30.52931647 121.56902525 -29.23736109 120.72081149 -27.94387817 119.87493896 C-24.54540633 117.65188504 -21.15965698 115.40962451 -17.7734375 113.16796875 C-17.10174026 112.72382629 -16.43004303 112.27968384 -15.73799133 111.82208252 C-9.38066698 107.60927514 -3.12200241 103.26334171 3.09204102 98.84204102 C8.23580807 95.19259893 13.46117419 91.67533708 18.71612549 88.18885803 C23.26523874 85.16702659 27.78985071 82.11110462 32.30378723 79.0369873 C35.72216481 76.71106701 39.14797665 74.39622832 42.57446289 72.08227539 C44.3391379 70.8870844 46.10079204 69.68742273 47.85961914 68.48364258 C50.43376007 66.72333402 53.01828898 64.97934927 55.60546875 63.23828125 C56.39084518 62.69577225 57.17622162 62.15326324 57.98539734 61.59431458 C58.71748917 61.10597641 59.44958099 60.61763824 60.20385742 60.11450195 C60.84256271 59.68055618 61.48126801 59.24661041 62.139328 58.79951477 C64 58 64 58 66.07316589 58.2240448 C69.20141552 59.48382194 71.27075542 61.92696818 73.5703125 64.3125 C74.35376541 65.10587769 74.35376541 65.10587769 75.15304565 65.9152832 C76.81762016 67.60323228 78.4716919 69.3010204 80.125 71 C81.78714503 72.69720328 83.45140889 74.39225116 85.11837769 76.0847168 C86.15440178 77.13772292 87.18732425 78.19379141 88.21682739 79.25317383 C90.84170537 81.9748255 90.84170537 81.9748255 94 84 C93.67 59.25 93.34 34.5 93 9 C68.58 8.67 44.16 8.34 19 8 C25.53869998 15.99174442 32.00024962 23.16226784 39.39648438 30.23046875 C40.12287109 30.93816406 40.84925781 31.64585937 41.59765625 32.375 C42.25258057 33.00148437 42.90750488 33.62796875 43.58227539 34.2734375 C45 36 45 36 45 39 C44.01 39 43.02 39 42 39 C42 39.66 42 40.32 42 41 C40.58460938 41.45439453 40.58460938 41.45439453 39.140625 41.91796875 C30.91804581 44.58958042 22.95313229 47.59657935 15 51 C10.49415806 52.87953183 6.06887905 54.25585199 1.3125 55.375 C-6.07319047 57.14869187 -13.45036891 59.60331934 -20.1875 63.15234375 C-22 64 -22 64 -25 64 C-25 64.66 -25 65.32 -25 66 C-25.66386719 66.18175781 -26.32773437 66.36351562 -27.01171875 66.55078125 C-27.89472656 66.80214844 -28.77773438 67.05351562 -29.6875 67.3125 C-30.55761719 67.55613281 -31.42773438 67.79976563 -32.32421875 68.05078125 C-35.05246496 68.91478596 -35.05246496 68.91478596 -37.4765625 70.515625 C-40.23466338 72.13803728 -42.56807124 72.76696859 -45.6875 73.4375 C-51.40468276 74.7773551 -56.60416809 76.71890977 -62 79 C-66.10718102 80.61050813 -70.23809792 82.08613532 -74.4375 83.4375 C-77.44898549 84.42596378 -80.3097484 85.54803676 -83.1875 86.875 C-87.16932289 88.68300085 -91.21384786 90.2909463 -95.3125 91.8125 C-96.48425781 92.25207031 -97.65601563 92.69164062 -98.86328125 93.14453125 C-101.87262521 93.96526142 -103.1628621 94.14186044 -106 93 C-100.75266143 90.15769161 -95.38801324 87.91409814 -89.8125 85.8125 C-88.77899414 85.41973877 -88.77899414 85.41973877 -87.72460938 85.01904297 C-84.17694867 83.70111964 -80.73982831 82.60272961 -77 82 C-77 81.34 -77 80.68 -77 80 C-73.535 79.505 -73.535 79.505 -70 79 C-70 78.34 -70 77.68 -70 77 C-68.75336669 76.49166409 -67.50250613 75.99368855 -66.25 75.5 C-65.55390625 75.2215625 -64.8578125 74.943125 -64.140625 74.65625 C-62 74 -62 74 -58 74 C-58 73.34 -58 72.68 -58 72 C-56.28490234 71.49339844 -56.28490234 71.49339844 -54.53515625 70.9765625 C-53.04414843 70.52644693 -51.55326959 70.07590397 -50.0625 69.625 C-49.30775391 69.40328125 -48.55300781 69.1815625 -47.77539062 68.953125 C-45.83152088 68.36037548 -43.91313548 67.68548828 -42 67 C-41.67 66.34 -41.34 65.68 -41 65 C-38.77734375 64.2890625 -38.77734375 64.2890625 -35.9375 63.625 C-31.61901542 62.51897885 -27.99055914 61.13278027 -24.08203125 59.03125 C-21.67031323 57.83670299 -19.22685894 56.95325108 -16.6875 56.0625 C-11.87917341 54.36895956 -7.2977247 52.36301797 -2.67578125 50.21875 C2.56019324 47.83389739 7.9269794 45.78657165 13.3046875 43.74609375 C14.44164062 43.31425781 15.57859375 42.88242188 16.75 42.4375 C17.79671875 42.04433594 18.8434375 41.65117187 19.921875 41.24609375 C23.05843197 40.03575795 23.05843197 40.03575795 26.140625 38.34765625 C29 37 29 37 33 37 C30.4893454 32.16460165 27.00091046 28.7760195 23.14453125 25.01953125 C22.15207649 24.03843636 22.15207649 24.03843636 21.13957214 23.03752136 C19.03531199 20.95761466 16.92472613 18.88431456 14.8125 16.8125 C12.02168305 14.07467923 9.23741034 11.33044683 6.45703125 8.58203125 C5.48682793 7.63672295 5.48682793 7.63672295 4.49702454 6.6723175 C2.95995389 5.15243063 1.47437422 3.58077922 0 2 C0 1.34 0 0.68 0 0 Z " fill="#914CD0" transform="translate(413,184)"/>
<path d="M0 0 C0.6909375 -0.020625 1.381875 -0.04125 2.09375 -0.0625 C7.20751857 -0.10094939 10.69894236 0.89442745 15.25 3.25 C20.14241764 8.14241764 19.68144869 15.8522073 19.69042969 22.37915039 C19.5884048 26.35580226 19.24495573 29.36496552 17 32.6875 C14.25 35.25 14.25 35.25 12.140625 35.72265625 C11.51671875 35.89667969 10.8928125 36.07070313 10.25 36.25 C9.92 37.24 9.59 38.23 9.25 39.25 C-6.00581395 39.66860465 -6.00581395 39.66860465 -11.75 37.25 C-16.7118261 32.21200551 -18.891193 27.644022 -19 20.5625 C-18.92384272 13.55603061 -17.90874014 8.78651966 -13.25 3.3125 C-9.08843271 -0.12079301 -5.16236021 0.03768146 0 0 Z " fill="#AA75DB" transform="translate(240.75,395.75)"/>
<path d="M0 0 C3.67125 -0.061875 7.3425 -0.12375 11.125 -0.1875 C12.84420654 -0.22846802 12.84420654 -0.22846802 14.59814453 -0.27026367 C21.51685272 -0.32667607 25.89068481 0.4634534 31.375 4.9375 C33 7 33 7 33 11 C33.66 11 34.32 11 35 11 C35.89537053 27.21615511 35.89537053 27.21615511 31.77734375 34.3984375 C26.27156925 39.35968485 17.95782179 38.23541896 11.0625 38.125 C7.411875 38.08375 3.76125 38.0425 0 38 C0 25.46 0 12.92 0 0 Z " fill="#A975DA" transform="translate(275,396)"/>
<path d="M0 0 C2.97 0 5.94 0 9 0 C10.89385468 4.05826003 11.6685959 8.11803221 12.4921875 12.484375 C13.14624602 15.72448027 14.03797957 18.83907573 15 22 C15.33 22 15.66 22 16 22 C16.16435547 21.10861328 16.16435547 21.10861328 16.33203125 20.19921875 C19.76923077 2.23076923 19.76923077 2.23076923 22 0 C23.51928038 -0.07179964 25.04167482 -0.08392007 26.5625 -0.0625 C27.38878906 -0.05347656 28.21507812 -0.04445313 29.06640625 -0.03515625 C29.70449219 -0.02355469 30.34257812 -0.01195312 31 0 C31.81391255 2.58289592 32.62617929 5.16628997 33.4375 7.75 C33.66759766 8.47960937 33.89769531 9.20921875 34.13476562 9.9609375 C34.35712891 10.66992188 34.57949219 11.37890625 34.80859375 12.109375 C35.01282959 12.75874023 35.21706543 13.40810547 35.42749023 14.07714844 C36.01169727 16.03928688 36.51810648 18.01049584 37 20 C39.64031672 13.46207289 41.38808348 6.85921925 43 0 C46.3 0 49.6 0 53 0 C52.64594493 4.7797435 51.88752403 8.58209956 50 13 C48.67644519 16.10252634 47.74717915 18.76465177 47.4375 22.125 C47.01361837 25.87938011 46.14468644 28.68985882 44.71875 32.140625 C43.83281356 34.3186399 43.83281356 34.3186399 43 38 C39.7 38 36.4 38 33 38 C32.57847656 36.78441406 32.15695312 35.56882812 31.72265625 34.31640625 C31.16942192 32.73171808 30.61602828 31.14708552 30.0625 29.5625 C29.64581055 28.35883789 29.64581055 28.35883789 29.22070312 27.13085938 C28.95322266 26.36708984 28.68574219 25.60332031 28.41015625 24.81640625 C28.16402588 24.10943604 27.91789551 23.40246582 27.66430664 22.67407227 C27.12532025 20.99317368 27.12532025 20.99317368 26 20 C23.11240999 25.90643412 22.04202284 31.50739614 21 38 C17.37 38 13.74 38 10 38 C7.08580723 29.67208943 4.47109094 21.46182502 2.67578125 12.8046875 C2.01483473 10.06156841 1.04792392 7.61317738 0 5 C-0.125 2.1875 -0.125 2.1875 0 0 Z " fill="#A874D8" transform="translate(389,396)"/>
<path d="M0 0 C0 0.66 0 1.32 0 2 C-1.73685141 3.26632258 -3.54704964 4.43164935 -5.375 5.5625 C-6.66378083 6.36946637 -7.95144505 7.17821747 -9.23828125 7.98828125 C-9.98029785 8.45443848 -10.72231445 8.9205957 -11.48681641 9.40087891 C-15.98461054 12.26279376 -20.42587777 15.21113799 -24.87850952 18.14260864 C-36.78948265 25.97525904 -48.81356093 33.60194563 -61 41 C-61.9885498 41.60054199 -62.97709961 42.20108398 -63.99560547 42.81982422 C-77.41672477 50.95720338 -90.92489855 58.92187141 -104.59277344 66.63769531 C-106.9961982 67.99784847 -109.39320904 69.36874943 -111.7890625 70.7421875 C-113.25509018 71.57833219 -114.72122958 72.41428104 -116.1875 73.25 C-117.18632202 73.82500244 -117.18632202 73.82500244 -118.20532227 74.41162109 C-122.77230024 77 -122.77230024 77 -125 77 C-125 77.66 -125 78.32 -125 79 C-125.556875 79.24234375 -126.11375 79.4846875 -126.6875 79.734375 C-130.6589603 81.47859743 -134.57866096 83.26747719 -138.4375 85.25 C-142 87 -142 87 -144 87 C-144 87.66 -144 88.32 -144 89 C-146.43218059 90.19963643 -148.86970578 91.38484438 -151.3125 92.5625 C-152.00279297 92.90474609 -152.69308594 93.24699219 -153.40429688 93.59960938 C-158.66015625 96.11328125 -158.66015625 96.11328125 -162 95 C-144.08546923 80.85694939 -124.49498924 68.81503035 -105 57 C-104.18644043 56.50580566 -103.37288086 56.01161133 -102.53466797 55.50244141 C-85.11626474 44.93729449 -67.56595554 34.56937726 -49.75 24.6875 C-48.92242187 24.22529053 -48.09484375 23.76308105 -47.2421875 23.28686523 C-46.09363281 22.65566772 -46.09363281 22.65566772 -44.921875 22.01171875 C-44.25768555 21.64522217 -43.59349609 21.27872559 -42.90917969 20.90112305 C-41 20 -41 20 -38.94238281 19.56176758 C-36.93875749 19.15479811 -36.93875749 19.15479811 -35.70141602 17.67456055 C-33.13498259 15.14863619 -29.97412226 13.78371496 -26.77734375 12.20703125 C-26.0760585 11.85613937 -25.37477325 11.5052475 -24.65223694 11.14372253 C-23.17348358 10.40551353 -21.69325729 9.67024866 -20.21166992 8.93774414 C-17.93868199 7.81308484 -15.67123965 6.67780233 -13.40429688 5.54101562 C-11.96646213 4.82488543 -10.52832138 4.10936923 -9.08984375 3.39453125 C-8.40961655 3.05396194 -7.72938934 2.71339264 -7.02854919 2.36250305 C-2.23105159 0 -2.23105159 0 0 0 Z " fill="#A773D7" transform="translate(431,258)"/>
<path d="M0 0 C3.96 0 7.92 0 12 0 C14.77590992 3.1495901 16.16067524 5.35117737 18 9 C19.02965765 10.72400891 20.09068518 12.42528411 21.16064453 14.12451172 C22.79667788 16.73545516 24.39444186 19.3702065 26 22 C26.33 14.74 26.66 7.48 27 0 C30.3 0 33.6 0 37 0 C37 12.54 37 25.08 37 38 C27 38 27 38 24.203125 36.046875 C21.45271287 32.24311354 19.05226412 28.33755277 16.75 24.25 C15.87092667 22.712892 14.990776 21.17639946 14.109375 19.640625 C13.72749023 18.96547852 13.34560547 18.29033203 12.95214844 17.59472656 C12.09806036 16.01651551 12.09806036 16.01651551 11 15 C10.67 22.92 10.34 30.84 10 39 C6.7 39 3.4 39 0 39 C0 26.13 0 13.26 0 0 Z " fill="#AF79E0" transform="translate(171,396)"/>
<path d="M0 0 C3.3 0 6.6 0 10 0 C10 4.95 10 9.9 10 15 C15.61 15 21.22 15 27 15 C27 10.05 27 5.1 27 0 C30.3 0 33.6 0 37 0 C37 12.54 37 25.08 37 38 C33.7 38 30.4 38 27 38 C27 33.05 27 28.1 27 23 C21.06 23 15.12 23 9 23 C9 27.95 9 32.9 9 38 C6.03 38 3.06 38 0 38 C0 25.46 0 12.92 0 0 Z " fill="#A470D3" transform="translate(592,396)"/>
<path d="M0 0 C0.66 0 1.32 0 2 0 C3.27172852 1.29736328 3.27172852 1.29736328 4.81640625 3.1953125 C8.09191941 7.04915712 11.55608164 10.6300141 15.15234375 14.1796875 C15.97528427 14.99412323 15.97528427 14.99412323 16.81484985 15.82501221 C19.1069192 18.09000775 21.4031161 20.35073784 23.70336914 22.60742188 C25.39900186 24.2730413 27.08851301 25.94467587 28.77734375 27.6171875 C29.30222885 28.12861298 29.82711395 28.64003845 30.36790466 29.16696167 C31.61695159 30.40717829 32.81402517 31.69933895 34 33 C34 33.66 34 34.32 34 35 C28.33492989 38.08900201 23.49142565 40.57664615 17 41 C16.67 41.99 16.34 42.98 16 44 C14.07421875 44.66015625 14.07421875 44.66015625 11.6875 45.0625 C9.17092866 45.49926031 7.18379901 45.907589 4.89453125 47.05859375 C3 48 3 48 0 48 C0 32.16 0 16.32 0 0 Z " fill="#61209E" transform="translate(384,179)"/>
<path d="M0 0 C10.23 0 20.46 0 31 0 C31 2.64 31 5.28 31 8 C24.07 8 17.14 8 10 8 C10 10.31 10 12.62 10 15 C11.60681641 14.98259766 11.60681641 14.98259766 13.24609375 14.96484375 C14.64322743 14.95546701 16.04036299 14.94636669 17.4375 14.9375 C18.14455078 14.92912109 18.85160156 14.92074219 19.58007812 14.91210938 C21.38693559 14.90346412 23.19387603 14.94779989 25 15 C26 16 26 16 26 23 C20.72 23 15.44 23 10 23 C10 25.64 10 28.28 10 31 C16.93 31 23.86 31 31 31 C31 33.64 31 36.28 31 39 C20.77 39 10.54 39 0 39 C0 26.13 0 13.26 0 0 Z " fill="#A370D2" transform="translate(324,396)"/>
<path d="M0 0 C1.37478516 0.01740234 1.37478516 0.01740234 2.77734375 0.03515625 C3.69644531 0.04417969 4.61554688 0.05320312 5.5625 0.0625 C6.27277344 0.07410156 6.98304688 0.08570313 7.71484375 0.09765625 C7.94558594 0.6803125 8.17632812 1.26296875 8.4140625 1.86328125 C10.74073875 7.7121591 13.13273599 13.53078138 15.56640625 19.3359375 C16.13488281 20.70298828 16.13488281 20.70298828 16.71484375 22.09765625 C17.070625 22.92007812 17.42640625 23.7425 17.79296875 24.58984375 C18.80923582 27.35443467 19.35026532 30.00765554 19.83984375 32.91015625 C20.09121094 34.37388672 20.09121094 34.37388672 20.34765625 35.8671875 C20.46882813 36.60324219 20.59 37.33929688 20.71484375 38.09765625 C19.43609375 38.15953125 18.15734375 38.22140625 16.83984375 38.28515625 C15.76089844 38.33736328 15.76089844 38.33736328 14.66015625 38.390625 C14.01820313 38.29394531 13.37625 38.19726562 12.71484375 38.09765625 C10.71484375 35.09765625 10.71484375 35.09765625 10.71484375 31.09765625 C5.43484375 31.42765625 0.15484375 31.75765625 -5.28515625 32.09765625 C-5.94515625 34.07765625 -6.60515625 36.05765625 -7.28515625 38.09765625 C-10.25515625 38.09765625 -13.22515625 38.09765625 -16.28515625 38.09765625 C-15.55359675 33.88515979 -14.33179445 29.89188377 -12.97265625 25.84765625 C-12.7504541 25.18306396 -12.52825195 24.51847168 -12.29931641 23.83374023 C-10.81578832 19.47182783 -9.14924265 15.2704742 -7.1953125 11.1015625 C-6.22459722 8.96432241 -5.40252308 6.80229148 -4.59765625 4.59765625 C-2.9203354 0.12480066 -2.9203354 0.12480066 0 0 Z " fill="#A773D8" transform="translate(464.28515625,395.90234375)"/>
<path d="M0 0 C3.125 2.1875 3.125 2.1875 5.125 5.1875 C5.25 8.375 5.25 8.375 5.125 11.1875 C2.485 11.1875 -0.155 11.1875 -2.875 11.1875 C-3.1225 10.548125 -3.37 9.90875 -3.625 9.25 C-4.66721124 7.08753883 -4.66721124 7.08753883 -6.5625 6.4375 C-12.19812709 5.82824302 -16.2653025 5.52685787 -20.875 9.1875 C-21.8326845 12.0605535 -22.07035459 14.06610993 -22.125 17.0625 C-22.16367187 18.32707031 -22.16367187 18.32707031 -22.203125 19.6171875 C-21.78148627 22.92002423 -21.06116183 24.66017123 -18.875 27.1875 C-15.68124623 27.79307942 -15.68124623 27.79307942 -12.1875 27.5 C-11.00800781 27.45488281 -9.82851563 27.40976562 -8.61328125 27.36328125 C-7.70964844 27.30527344 -6.80601562 27.24726563 -5.875 27.1875 C-5.215 25.8675 -4.555 24.5475 -3.875 23.1875 C-0.575 23.1875 2.725 23.1875 6.125 23.1875 C5.64931821 28.18215883 4.3085207 31.29653025 1.125 35.1875 C-5.55831469 38.62795417 -14.13812129 37.91338403 -21.375 36.5625 C-25.70460549 34.86158356 -27.34373875 33.05884073 -29.875 29.1875 C-31.66023146 24.75260921 -32.1718114 20.95683468 -32.1875 16.1875 C-32.20425781 15.011875 -32.22101562 13.83625 -32.23828125 12.625 C-31.70381223 7.56765872 -30.0971164 4.31795767 -26.375 0.875 C-19.74471471 -3.60044257 -7.12381294 -3.44997965 0 0 Z " fill="#A773D7" transform="translate(571.875,397.8125)"/>
<path d="M0 0 C-5.32931087 3.72205838 -10.80770932 7.13145144 -16.4375 10.375 C-17.05254395 10.73271484 -17.66758789 11.09042969 -18.30126953 11.45898438 C-22.75795337 14 -22.75795337 14 -25 14 C-25 14.66 -25 15.32 -25 16 C-32.42857143 19.28571429 -32.42857143 19.28571429 -36 20 C-36 20.66 -36 21.32 -36 22 C-58.39565406 33.44790257 -58.39565406 33.44790257 -67 35 C-67.33 35.99 -67.66 36.98 -68 38 C-70.59828991 39.02626519 -73.07525042 39.86213128 -75.75 40.625 C-76.46671875 40.8415625 -77.1834375 41.058125 -77.921875 41.28125 C-81.58876934 42.37322956 -85.22804805 43.3317408 -89 44 C-89.33 44.99 -89.66 45.98 -90 47 C-92.70123724 48.04119351 -95.28814435 48.90328845 -98.0625 49.6875 C-98.82111328 49.91244141 -99.57972656 50.13738281 -100.36132812 50.36914062 C-102.23766304 50.9237805 -104.11844855 51.46332298 -106 52 C-104.8750171 48.62505131 -104.46880319 48.38289526 -101.5625 46.65234375 C-100.48210449 46.00023926 -100.48210449 46.00023926 -99.37988281 45.33496094 C-98.59452148 44.87379883 -97.80916016 44.41263672 -97 43.9375 C-96.18112305 43.44926758 -95.36224609 42.96103516 -94.51855469 42.45800781 C-92.82239439 41.44815515 -91.12412864 40.44183088 -89.42382812 39.43896484 C-87.29426809 38.17469945 -85.18316508 36.88652481 -83.078125 35.58203125 C-73.79046274 29.88535979 -64.1576433 24.90719429 -54.4375 20 C-53.78261597 19.66649536 -53.12773193 19.33299072 -52.45300293 18.98937988 C-45.73841415 15.57922964 -39.3882376 12.60732981 -32 11 C-31.67 10.34 -31.34 9.68 -31 9 C-25.56912579 6.33658276 -19.80274618 4.64228665 -14 3 C-12.80375 2.484375 -11.6075 1.96875 -10.375 1.4375 C-3.22 -1.61 -3.22 -1.61 0 0 Z " fill="#A471D4" transform="translate(389,265)"/>
<path d="M0 0 C10.89 0 21.78 0 33 0 C33 2.64 33 5.28 33 8 C29.04 8 25.08 8 21 8 C21 17.9 21 27.8 21 38 C17.7 38 14.4 38 11 38 C11 28.43 11 18.86 11 9 C7.37 9 3.74 9 0 9 C0 6.03 0 3.06 0 0 Z " fill="#A26FD1" transform="translate(493,396)"/>
<path d="M0 0 C0.66 0.33 1.32 0.66 2 1 C1.175 1.598125 0.35 2.19625 -0.5 2.8125 C-2.03478228 4.15311575 -2.03478228 4.15311575 -3 6 C-2.80914871 7.69520855 -2.55089217 9.38332754 -2.25 11.0625 C-2.0859375 13.95703125 -2.0859375 13.95703125 -3 17 C-7.20085146 21.42318449 -12.70459806 24.49666734 -17.86669922 27.66796875 C-20.65499574 29.4089788 -23.2834496 31.31125332 -25.9375 33.25 C-29.7547619 36 -29.7547619 36 -32 36 C-32.33 32.37 -32.66 28.74 -33 25 C-33.33 28.3 -33.66 31.6 -34 35 C-40.27 35 -46.54 35 -53 35 C-49.57371629 32.25897303 -46.47713646 29.94901286 -42.7890625 27.6796875 C-41.79849854 27.06665771 -40.80793457 26.45362793 -39.78735352 25.82202148 C-38.74377686 25.17950439 -37.7002002 24.5369873 -36.625 23.875 C-27.29220025 18.08800519 -18.08811459 12.16201709 -9 6 C-7.18862447 4.78998167 -5.37629084 3.58139483 -3.5625 2.375 C-2.86253906 1.90835937 -2.16257812 1.44171875 -1.44140625 0.9609375 C-0.72791016 0.48527344 -0.72791016 0.48527344 0 0 Z " fill="#31144D" transform="translate(423,264)"/>
<path d="M0 0 C2.76151552 2.27418925 3.89806178 4.32240026 4.4609375 7.86328125 C4.56458557 13.69866769 3.53046646 16.98234696 0.125 21.75 C-3.90642914 24.43761942 -7.13832637 24.67537664 -11.875 23.75 C-15.25196173 21.7113157 -18.09746725 19.3050655 -19.875 15.75 C-20.7235571 9.79797809 -19.96429873 5.86906497 -16.359375 1.0625 C-12.10945038 -2.69532808 -4.89060098 -2.12634825 0 0 Z " fill="#7E40B7" transform="translate(353.875,454.25)"/>
<path d="M0 0 C3.5241064 2.05415828 7.14296646 4.28593293 9 8 C9.58750016 12.25937613 9.91159135 14.64543588 7.47265625 18.26953125 C5.71508532 20.26432035 3.91588832 22.15762299 2 24 C1.67 24.33 1.34 24.66 1 25 C-2.05404823 25.44170119 -4.94912144 25.46776673 -8 25 C-11.23569211 22.52159753 -13.76679461 19.92383532 -15 16 C-15.42161717 10.68762372 -15.53159711 7.26227237 -12 3 C-8.06312617 -0.17137058 -4.98255472 -0.76005072 0 0 Z " fill="#8444BE" transform="translate(134,453)"/>
<path d="M0 0 C4.13909799 0.53612272 6.46210664 1.892678 9.8046875 4.36328125 C11.54059902 7.83510428 11.27040423 11.56737089 10.8046875 15.36328125 C9.19753976 18.52017859 7.83030516 20.55743881 5.0546875 22.73828125 C0.39082014 24.03379996 -3.63507144 24.05672172 -8.0078125 22.11328125 C-10.35622463 20.23455155 -11.81654571 19.04824817 -13.1953125 16.36328125 C-13.63903613 10.77236347 -13.50769057 6.34980089 -9.94921875 1.75390625 C-6.91846253 -0.64909868 -3.72416865 -0.0938451 0 0 Z " fill="#8B49C9" transform="translate(476.1953125,453.63671875)"/>
<path d="M0 0 C1.75570312 0.06767578 1.75570312 0.06767578 3.546875 0.13671875 C4.88492188 0.22373047 4.88492188 0.22373047 6.25 0.3125 C9.96424615 5.76779903 11.09008598 9.7277084 10.25 16.3125 C9.2910536 19.53182007 8.61871021 20.94378979 6.25 23.3125 C3.5703125 23.6484375 3.5703125 23.6484375 0.375 23.6875 C-1.19894531 23.73003906 -1.19894531 23.73003906 -2.8046875 23.7734375 C-6.42484797 23.20688719 -7.5317181 22.17047249 -9.75 19.3125 C-10.74963315 16.31360054 -10.98071314 14.07983714 -11.0625 10.9375 C-11.09988281 10.00164062 -11.13726562 9.06578125 -11.17578125 8.1015625 C-10.12520004 1.21977363 -6.4917612 -0.32458806 0 0 Z " fill="#351751" transform="translate(241.75,403.6875)"/>
<path d="M0 0 C1.65 0 3.3 0 5 0 C6.5625 2 6.5625 2 8 5 C8.34160156 5.639375 8.68320313 6.27875 9.03515625 6.9375 C10.99759491 10.65136241 12.24469362 13.84581492 13 18 C13.66 18.33 14.32 18.66 15 19 C15.12375 17.7315625 15.12375 17.7315625 15.25 16.4375 C16.01810624 12.91701305 17.16046248 10.68908544 19.03125 7.67578125 C20.15222602 5.87037631 20.15222602 5.87037631 20.9375 3.125 C22 1 22 1 24.5625 0.125 C25.366875 0.08375 26.17125 0.0425 27 0 C28 1 28 1 28.11352539 3.31665039 C28.10828857 4.31688232 28.10305176 5.31711426 28.09765625 6.34765625 C28.09443359 7.42724609 28.09121094 8.50683594 28.08789062 9.61914062 C28.07951172 10.75544922 28.07113281 11.89175781 28.0625 13.0625 C28.05798828 14.20267578 28.05347656 15.34285156 28.04882812 16.51757812 C28.03699747 19.34510351 28.0205141 22.1725264 28 25 C26.35 25 24.7 25 23 25 C23 21.37 23 17.74 23 14 C22.34 14 21.68 14 21 14 C20.71125 14.721875 20.4225 15.44375 20.125 16.1875 C19.08333333 18.79166667 18.04166667 21.39583333 17 24 C15.02 24 13.04 24 11 24 C9.35 20.7 7.7 17.4 6 14 C5.67 17.63 5.34 21.26 5 25 C3.35 25 1.7 25 0 25 C0 16.75 0 8.5 0 0 Z " fill="#8947C5" transform="translate(159,453)"/>
<path d="M0 0 C0.71671875 -0.02900391 1.4334375 -0.05800781 2.171875 -0.08789062 C5.8648057 -0.13201572 8.04810803 0.19094201 11.234375 2.109375 C13.25 4.3125 13.25 4.3125 13.75 7.875 C13.2077495 11.60297219 12.77954605 11.89293421 10.25 14.3125 C10.44131562 18.13881232 11.48535038 19.7882547 14.25 22.3125 C14.25 22.9725 14.25 23.6325 14.25 24.3125 C12.6 24.3125 10.95 24.3125 9.25 24.3125 C8.92 23.3225 8.59 22.3325 8.25 21.3125 C6.92151309 20.30607052 5.58849671 19.30557821 4.25 18.3125 C4.25 17.6525 4.25 16.9925 4.25 16.3125 C1.61 16.3125 -1.03 16.3125 -3.75 16.3125 C-3.75 19.2825 -3.75 22.2525 -3.75 25.3125 C-5.4 25.3125 -7.05 25.3125 -8.75 25.3125 C-8.77886984 21.33334841 -8.79675406 17.35422347 -8.8125 13.375 C-8.82087891 12.23869141 -8.82925781 11.10238281 -8.83789062 9.93164062 C-8.84111328 8.85205078 -8.84433594 7.77246094 -8.84765625 6.66015625 C-8.85289307 5.65992432 -8.85812988 4.65969238 -8.86352539 3.62915039 C-8.61706375 -1.40025724 -3.98327368 0.05259604 0 0 Z " fill="#8444BE" transform="translate(642.75,452.6875)"/>
<path d="M0 0 C4.33125 -0.12375 4.33125 -0.12375 8.75 -0.25 C9.65331055 -0.28641602 10.55662109 -0.32283203 11.48730469 -0.36035156 C17.36443395 -0.44179591 17.36443395 -0.44179591 20.5625 1.78125 C22.5803404 4.8957428 22.27884245 7.37504812 22 11 C20.02 11.99 20.02 11.99 18 13 C19.12451727 15.9719385 20.22293791 18.33440687 22 21 C22 21.99 22 22.98 22 24 C19.75 23.9375 19.75 23.9375 17 23 C16.09947612 21.19895223 15.19969143 19.39749629 14.3125 17.58984375 C12.48266404 15.37334602 11.06190979 15.34808459 8.25 15.0625 C6.14625 15.0315625 6.14625 15.0315625 4 15 C4 17.97 4 20.94 4 24 C2.68 24 1.36 24 0 24 C0 16.08 0 8.16 0 0 Z " fill="#8B49C9" transform="translate(81,453)"/>
<path d="M0 0 C2.17839615 1.90942186 4.21691488 3.93773184 6.25 6 C7.08144531 6.81984375 7.08144531 6.81984375 7.9296875 7.65625 C12 11.7466133 12 11.7466133 12 14 C-1.53 14 -15.06 14 -29 14 C-29 13.34 -29 12.68 -29 12 C-27.13574219 10.59545898 -27.13574219 10.59545898 -24.546875 8.99609375 C-23.61746094 8.42052734 -22.68804687 7.84496094 -21.73046875 7.25195312 C-20.25513672 6.35379883 -20.25513672 6.35379883 -18.75 5.4375 C-17.78191406 4.83486328 -16.81382812 4.23222656 -15.81640625 3.61132812 C-4.74922761 -3.18926234 -4.74922761 -3.18926234 0 0 Z " fill="#5C1E96" transform="translate(479,272)"/>
<path d="M0 0 C12.13759214 -0.72825553 12.13759214 -0.72825553 15.8125 2.375 C17.64680146 7.97444655 17.87249015 13.38252956 16 19 C14.125 21.1875 14.125 21.1875 11 23 C7.37 23 3.74 23 0 23 C0 15.41 0 7.82 0 0 Z " fill="#34164F" transform="translate(284,404)"/>
<path d="M0 0 C1.2065625 0.0309375 1.2065625 0.0309375 2.4375 0.0625 C11.4375 19.13217213 11.4375 19.13217213 11.4375 24.0625 C9.7875 24.0625 8.1375 24.0625 6.4375 24.0625 C6.1075 23.4025 5.7775 22.7425 5.4375 22.0625 C2.6215151 21.59351037 2.6215151 21.59351037 -0.625 21.4375 C-1.72972656 21.36273438 -2.83445312 21.28796875 -3.97265625 21.2109375 C-4.82730469 21.16195313 -5.68195312 21.11296875 -6.5625 21.0625 C-6.8925 22.0525 -7.2225 23.0425 -7.5625 24.0625 C-8.8825 24.0625 -10.2025 24.0625 -11.5625 24.0625 C-10.58058236 17.97461063 -7.21135471 0.1758867 0 0 Z " fill="#8947C6" transform="translate(606.5625,452.9375)"/>
<path d="M0 0 C1.2065625 0.0309375 1.2065625 0.0309375 2.4375 0.0625 C2.75203125 0.88492187 3.0665625 1.70734375 3.390625 2.5546875 C5.78641795 8.80395464 8.20958864 15.03757889 10.73828125 21.234375 C11.4375 23.0625 11.4375 23.0625 11.4375 24.0625 C9.7875 24.0625 8.1375 24.0625 6.4375 24.0625 C6.4375 23.0725 6.4375 22.0825 6.4375 21.0625 C4.2910247 21.17594376 2.14529408 21.30356345 0 21.4375 C-1.19496094 21.50710938 -2.38992188 21.57671875 -3.62109375 21.6484375 C-4.59175781 21.78507812 -5.56242187 21.92171875 -6.5625 22.0625 C-6.8925 22.7225 -7.2225 23.3825 -7.5625 24.0625 C-8.8825 24.0625 -10.2025 24.0625 -11.5625 24.0625 C-10.94551463 18.68958572 -9.15542437 14.17971945 -7.0625 9.25 C-6.58103516 8.08694336 -6.58103516 8.08694336 -6.08984375 6.90039062 C-3.23713468 0.0789545 -3.23713468 0.0789545 0 0 Z " fill="#8947C5" transform="translate(309.5625,452.9375)"/>
<path d="M0 0 C4.96738505 7.45107757 3.12012193 19.01717031 3.0625 27.625 C3.05798828 28.91535156 3.05347656 30.20570313 3.04882812 31.53515625 C3.03714295 34.69015375 3.02076044 37.84505137 3 41 C-0.77076545 41.05899621 -4.54140926 41.09392568 -8.3125 41.125 C-9.36501953 41.14175781 -10.41753906 41.15851563 -11.50195312 41.17578125 C-18.55781803 41.21920196 -25.10987473 40.5223667 -32 39 C-32 38.67 -32 38.34 -32 38 C-22.20460071 36.46346678 -12.92907332 35.72461738 -3 36 C-3.02320313 35.28199219 -3.04640625 34.56398438 -3.0703125 33.82421875 C-3.19308686 26.78223235 -2.80689511 19.9368259 -2.0625 12.9375 C-1.97564941 12.11660889 -1.88879883 11.29571777 -1.79931641 10.44995117 C-1.399786 6.88039436 -0.92960768 3.47569172 0 0 Z " fill="#A773D7" transform="translate(434,304)"/>
<path d="M0 0 C-0.33 0.33 -0.66 0.66 -1 1 C2.3 0.67 5.6 0.34 9 0 C6.20437708 1.86374861 3.88938229 2.87753929 0.75 4 C-0.16265625 4.33 -1.0753125 4.66 -2.015625 5 C-4.11361422 5.70299115 -6.23254159 6.34499712 -8.36328125 6.94140625 C-12.30774252 8.08957919 -16.10371948 9.46979425 -19.9375 10.9375 C-21.27994792 11.44661458 -22.62239583 11.95572917 -23.96484375 12.46484375 C-24.62653564 12.71661377 -25.28822754 12.96838379 -25.9699707 13.2277832 C-36.02493096 17.05265865 -36.02493096 17.05265865 -40.4375 18.4375 C-43.44898549 19.42596378 -46.3097484 20.54803676 -49.1875 21.875 C-53.16932289 23.68300085 -57.21384786 25.2909463 -61.3125 26.8125 C-62.48425781 27.25207031 -63.65601563 27.69164062 -64.86328125 28.14453125 C-67.87262521 28.96526142 -69.1628621 29.14186044 -72 28 C-66.75266143 25.15769161 -61.38801324 22.91409814 -55.8125 20.8125 C-54.77899414 20.41973877 -54.77899414 20.41973877 -53.72460938 20.01904297 C-50.17694867 18.70111964 -46.73982831 17.60272961 -43 17 C-43 16.34 -43 15.68 -43 15 C-39.535 14.505 -39.535 14.505 -36 14 C-36 13.34 -36 12.68 -36 12 C-34.75336669 11.49166409 -33.50250613 10.99368855 -32.25 10.5 C-31.20585937 10.08234375 -31.20585937 10.08234375 -30.140625 9.65625 C-28 9 -28 9 -24 9 C-24 8.34 -24 7.68 -24 7 C-22.85660156 6.66226563 -21.71320313 6.32453125 -20.53515625 5.9765625 C-19.04414843 5.52644693 -17.55326959 5.07590397 -16.0625 4.625 C-15.30775391 4.40328125 -14.55300781 4.1815625 -13.77539062 3.953125 C-11.83152088 3.36037548 -9.91313548 2.68548828 -8 2 C-7.67 1.34 -7.34 0.68 -7 0 C-3.86650268 -1.04449911 -3.01031744 -0.93423645 0 0 Z " fill="#8042BA" transform="translate(379,249)"/>
<path d="M0 0 C0.99 0.495 0.99 0.495 2 1 C0.02 2.32 -1.96 3.64 -4 5 C-3.505 5.99 -3.505 5.99 -3 7 C-4.11221924 7.35715088 -5.22443848 7.71430176 -6.37036133 8.08227539 C-10.59693301 9.44069192 -14.82175892 10.80447373 -19.04614258 12.16967773 C-20.8559103 12.75376745 -22.6661152 13.33650477 -24.47680664 13.91772461 C-34.95571916 17.28251303 -45.36083343 20.77268114 -55.66279602 24.64955139 C-72.54537515 31 -72.54537515 31 -78 31 C-78 30.34 -78 29.68 -78 29 C-76.83984375 28.62488281 -75.6796875 28.24976563 -74.484375 27.86328125 C-66.44794944 25.23967033 -58.56504481 22.51363627 -50.80078125 19.15234375 C-46.86982472 17.53500459 -42.84365187 16.27051792 -38.80078125 14.96484375 C-36.28346101 14.09764975 -33.91387161 13.11777478 -31.5 12 C-27.06332876 9.9467311 -22.50501761 8.4467443 -17.859375 6.9375 C-12.83725967 5.29090481 -7.93899279 3.434584 -3.125 1.25 C-2.09375 0.8375 -1.0625 0.425 0 0 Z " fill="#9D6BCC" transform="translate(337,239)"/>
<path d="M0 0 C1.32 0 2.64 0 4 0 C4 7.92 4 15.84 4 24 C2.68 24 1.36 24 0 24 C0 20.7 0 17.4 0 14 C-3.96 14 -7.92 14 -12 14 C-12 17.3 -12 20.6 -12 24 C-13.32 24 -14.64 24 -16 24 C-16 16.41 -16 8.82 -16 1 C-14.68 1 -13.36 1 -12 1 C-12 3.97 -12 6.94 -12 10 C-8.04 10 -4.08 10 0 10 C0 6.7 0 3.4 0 0 Z " fill="#8D49CB" transform="translate(277,453)"/>
<path d="M0 0 C3 1.3125 3 1.3125 5 3 C5 3.99 5 4.98 5 6 C3.9790625 5.7834375 3.9790625 5.7834375 2.9375 5.5625 C-0.36273082 4.93054091 -3.67144426 4.45686059 -7 4 C-6.96719174 5.9592113 -6.96719174 5.9592113 -6 8 C-3.26327329 9.33295932 -3.26327329 9.33295932 0 10.1875 C5.9480737 11.9480737 5.9480737 11.9480737 7 13 C7.45601889 17.02816683 7.64306166 19.16401984 5.125 22.4375 C0.77317951 24.61341024 -3.21285368 24.66942209 -8 24 C-10.30859375 22.9765625 -10.30859375 22.9765625 -12 22 C-11.505 20.515 -11.505 20.515 -11 19 C-6.38 19 -1.76 19 3 19 C2.67 17.68 2.34 16.36 2 15 C-0.47231328 13.70724212 -0.47231328 13.70724212 -3.4375 12.875 C-8.8247619 11.1752381 -8.8247619 11.1752381 -11 9 C-11.32339354 5.96010077 -11.45670212 3.85631647 -10 1.125 C-6.78685474 -0.68239421 -3.545506 -0.51734037 0 0 Z " fill="#8D49CB" transform="translate(384,453)"/>
<path d="M0 0 C2.09765625 0.4140625 2.09765625 0.4140625 4.16015625 2.5390625 C5.24497741 5.86584739 5.6759073 7.9445562 5.09765625 11.4140625 C2.4655416 15.08307079 1.00911299 16.25415781 -3.46484375 17.0390625 C-6.90234375 16.4140625 -6.90234375 16.4140625 -9.40234375 14.4140625 C-11.53790936 10.14293128 -11.02172191 8.04082554 -9.90234375 3.4140625 C-7.1308194 -0.29825452 -4.37336808 -0.15644569 0 0 Z " fill="#32124F" transform="translate(477.90234375,456.5859375)"/>
<path d="M0 0 C1.90625 0.41015625 1.90625 0.41015625 4.40625 1.91015625 C6.52326264 5.43851066 6.83257945 8.40152705 5.90625 12.41015625 C3.90625 14.97265625 3.90625 14.97265625 0.90625 16.41015625 C-3.0280805 16.70867549 -6.04497942 16.29505643 -9.09375 13.72265625 C-10.4188684 10.65831995 -10.56697484 8.72273015 -10.09375 5.41015625 C-7.58723776 0.60600778 -5.16813059 -0.37603935 0 0 Z " fill="#32124F" transform="translate(348.09375,456.58984375)"/>
<path d="M0 0 C6.93 0 13.86 0 21 0 C21 1.65 21 3.3 21 5 C18.36 5 15.72 5 13 5 C13 11.6 13 18.2 13 25 C11.35 25 9.7 25 8 25 C8 18.4 8 11.8 8 5 C5.36 5 2.72 5 0 5 C0 3.35 0 1.7 0 0 Z " fill="#8042BA" transform="translate(696,453)"/>
<path d="M0 0 C6.93 0 13.86 0 21 0 C21 1.65 21 3.3 21 5 C18.36 5 15.72 5 13 5 C13 11.27 13 17.54 13 24 C11.35 24 9.7 24 8 24 C8 17.73 8 11.46 8 5 C5.36 5 2.72 5 0 5 C0 3.35 0 1.7 0 0 Z " fill="#8243BC" transform="translate(428,453)"/>
<path d="M0 0 C0 1.32 0 2.64 0 4 C-1.01320312 3.96519531 -1.01320312 3.96519531 -2.046875 3.9296875 C-2.93890625 3.91164063 -3.8309375 3.89359375 -4.75 3.875 C-5.63171875 3.85179687 -6.5134375 3.82859375 -7.421875 3.8046875 C-10.20810367 4.01576543 -11.75698362 4.32793324 -14 6 C-14.6993514 8.18541552 -14.6993514 8.18541552 -14.75 10.625 C-14.80671875 11.44226563 -14.8634375 12.25953125 -14.921875 13.1015625 C-14.94765625 13.72804688 -14.9734375 14.35453125 -15 15 C-14.01 15.33 -13.02 15.66 -12 16 C-12 16.66 -12 17.32 -12 18 C-8.04 17.67 -4.08 17.34 0 17 C0.33 18.32 0.66 19.64 1 21 C-3.23136122 23.11568061 -7.34465529 23.94796334 -12 23 C-15 20.625 -15 20.625 -17 18 C-17 17.34 -17 16.68 -17 16 C-17.66 16 -18.32 16 -19 16 C-19.05410687 14.22950311 -19.09284119 12.45853151 -19.125 10.6875 C-19.14820313 9.70136719 -19.17140625 8.71523438 -19.1953125 7.69921875 C-19 5 -19 5 -17 2 C-11.9961642 -2.09404748 -5.9298401 -1.97661337 0 0 Z " fill="#8545C0" transform="translate(243,455)"/>
<path d="M0 0 C2.72632201 2.14801128 2.9221528 3.54264772 3.5 6.9375 C2.81810427 11.11411135 1.36996335 12.50915752 -2 15 C-5 15.625 -5 15.625 -8 15 C-10.875 12.9375 -10.875 12.9375 -13 10 C-13.5625 6.375 -13.5625 6.375 -13 3 C-9.95319208 -1.10656719 -4.67078273 -0.78730997 0 0 Z " fill="#30114C" transform="translate(136,458)"/>
<path d="M0 0 C1.65 0 3.3 0 5 0 C5 6.6 5 13.2 5 20 C9.62 20 14.24 20 19 20 C18.67 21.65 18.34 23.3 18 25 C12.06 25 6.12 25 0 25 C0 16.75 0 8.5 0 0 Z " fill="#7E40B6" transform="translate(560,453)"/>
<path d="M0 0 C2.9375 1.5 2.9375 1.5 5 3 C4.67 3.99 4.34 4.98 4 6 C2.68 6 1.36 6 0 6 C0 5.34 0 4.68 0 4 C-4.63471819 4.2992003 -4.63471819 4.2992003 -8.70703125 6.2578125 C-10.35715566 8.48124298 -10.40215353 9.81546832 -10.375 12.5625 C-10.38273438 13.34753906 -10.39046875 14.13257813 -10.3984375 14.94140625 C-10.26695312 15.62074219 -10.13546875 16.30007813 -10 17 C-6.68629 19.20914 -5.6553979 19.22481553 -1.8125 19.125 C-0.46091797 19.09792969 -0.46091797 19.09792969 0.91796875 19.0703125 C1.60503906 19.04710937 2.29210937 19.02390625 3 19 C3.042721 20.66611905 3.04063832 22.33382885 3 24 C2 25 2 25 -1.75 25.25 C-5.66613768 25.17307587 -7.95161948 24.62499433 -11 22 C-14.0515421 17.98481302 -15.35448835 15.43911922 -15 10.375 C-14.32494113 6.33842348 -13.03026587 3.85201494 -10 1 C-6.42365687 -0.19211438 -3.75935317 -0.25926574 0 0 Z " fill="#8645C1" transform="translate(538,453)"/>
<path d="M0 0 C5.94 0 11.88 0 18 0 C18 1.32 18 2.64 18 4 C13.38 4 8.76 4 4 4 C4 6.31 4 8.62 4 11 C7.3 11 10.6 11 14 11 C14 11.99 14 12.98 14 14 C10.7 14 7.4 14 4 14 C4 17.3 4 20.6 4 24 C2.68 24 1.36 24 0 24 C0 16.08 0 8.16 0 0 Z " fill="#8F4BCE" transform="translate(45,453)"/>
<path d="M0 0 C2.30078125 -0.24609375 2.30078125 -0.24609375 5 0 C6.73046875 1.71484375 6.73046875 1.71484375 8.1875 3.9375 C10.11162944 7.00584213 10.11162944 7.00584213 13 9 C13.2475 8.2575 13.495 7.515 13.75 6.75 C15.13577971 3.70128464 16.35068125 2.04376018 19 0 C21.75 -0.25 21.75 -0.25 24 0 C24 0.66 24 1.32 24 2 C23.34 2 22.68 2 22 2 C21.773125 2.515625 21.54625 3.03125 21.3125 3.5625 C20 6 20 6 17.4375 9.0625 C14.07259059 13.59523091 14.10902522 18.51900494 14 24 C12.68 24 11.36 24 10 24 C10.03222656 23.33355469 10.06445312 22.66710937 10.09765625 21.98046875 C9.99677139 13.9657272 7.29258 10.04200976 1.93359375 4.21484375 C0 2 0 2 0 0 Z " fill="#8A48C7" transform="translate(733,453)"/>
<path d="M0 0 C-0.52382523 3.194862 -1.2114152 5.35574562 -3.76611328 7.44287109 C-6.15866967 8.94066751 -8.58945815 10.32662916 -11.0625 11.6875 C-12.88953312 12.73564957 -14.7150298 13.78648139 -16.5390625 14.83984375 C-17.45719727 15.36562012 -18.37533203 15.89139648 -19.32128906 16.43310547 C-23.27687545 18.74689999 -27.10913973 21.23301909 -30.9375 23.75 C-32.31217857 24.64632649 -33.68717168 25.54217081 -35.0625 26.4375 C-35.71734375 26.86417969 -36.3721875 27.29085938 -37.046875 27.73046875 C-40.16470459 29.75705799 -43.29144693 31.76749493 -46.4375 33.75 C-47.46746094 34.40484375 -48.49742187 35.0596875 -49.55859375 35.734375 C-50.36425781 36.15203125 -51.16992188 36.5696875 -52 37 C-52.66 36.67 -53.32 36.34 -54 36 C-46.59779208 30.52479072 -39.06460227 25.31182881 -31.375 20.25 C-23.1370463 14.80333427 -14.98621979 9.26687097 -7.00146484 3.45410156 C-2.20814145 0 -2.20814145 0 0 0 Z " fill="#8645C1" transform="translate(422,280)"/>
<path d="M0 0 C0.66 0.33 1.32 0.66 2 1 C1.67 4.96 1.34 8.92 1 13 C-5.6 13 -12.2 13 -19 13 C-15.23040356 9.23040356 -11.87763324 6.86579046 -7.375 4.1875 C-6.694375 3.76791016 -6.01375 3.34832031 -5.3125 2.91601562 C-3.58016131 1.87695477 -1.79315903 0.930175 0 0 Z " fill="#31124E" transform="translate(418,286)"/>
<path d="M0 0 C0.33 0 0.66 0 1 0 C1 13.86 1 27.72 1 42 C1.99 41.505 1.99 41.505 3 41 C3 34.4 3 27.8 3 21 C3.33 21 3.66 21 4 21 C4 27.27 4 33.54 4 40 C5.84207031 39.98839844 7.68414062 39.97679687 9.58203125 39.96484375 C11.99218649 39.95546571 14.40234282 39.94636553 16.8125 39.9375 C18.63491211 39.92493164 18.63491211 39.92493164 20.49414062 39.91210938 C22.23920898 39.90727539 22.23920898 39.90727539 24.01953125 39.90234375 C25.09307861 39.89710693 26.16662598 39.89187012 27.27270508 39.88647461 C30 40 30 40 33 41 C33 41.66 33 42.32 33 43 C22.11 43 11.22 43 0 43 C0 28.81 0 14.62 0 0 Z " fill="#5A357D" transform="translate(469,301)"/>
<path d="M0 0 C3.96 0 7.92 0 12 0 C12 0.33 12 0.66 12 1 C8.7 1 5.4 1 2 1 C2 12.88 2 24.76 2 37 C4.31 37 6.62 37 9 37 C9 29.08 9 21.16 9 13 C9.99 13 10.98 13 12 13 C11.67 13.66 11.34 14.32 11 15 C10.84693099 16.81171098 10.75053339 18.6283794 10.68359375 20.4453125 C10.64169922 21.52167969 10.59980469 22.59804688 10.55664062 23.70703125 C10.49766602 25.39892578 10.49766602 25.39892578 10.4375 27.125 C10.39431641 28.26066406 10.35113281 29.39632813 10.30664062 30.56640625 C10.2003396 33.37747768 10.09830595 36.18863945 10 39 C6.7 39 3.4 39 0 39 C0 26.13 0 13.26 0 0 Z " fill="#7D51A6" transform="translate(171,396)"/>
<path d="M0 0 C4.68731546 0.11233218 8.07255888 0.39432416 12.0625 3 C14.70782744 7.09599087 14.91435239 10.25022257 14 15 C12.8906366 17.60438533 11.60576199 19.64153708 10 22 C6.37 22 2.74 22 -1 22 C-1 21.34 -1 20.68 -1 20 C0.98 20 2.96 20 5 20 C5 19.34 5 18.68 5 18 C5.66 17.62875 6.32 17.2575 7 16.875 C9.15729125 15.23551044 9.15729125 15.23551044 9.30078125 13.1328125 C9.31925415 9.77074494 9.07242474 7.21727421 8 4 C5.89415562 3.19436362 5.89415562 3.19436362 3.4375 2.8125 C2.61121094 2.65394531 1.78492188 2.49539063 0.93359375 2.33203125 C0.29550781 2.22246094 -0.34257812 2.11289062 -1 2 C-0.67 1.34 -0.34 0.68 0 0 Z " fill="#8F4BCE" transform="translate(344,454)"/>
<path d="M0 0 C3.3 0 6.6 0 10 0 C10 12.54 10 25.08 10 38 C6.7 38 3.4 38 0 38 C0 37.67 0 37.34 0 37 C2.97 37 5.94 37 9 37 C9 25.12 9 13.24 9 1 C6.69 1 4.38 1 2 1 C2 9.25 2 17.5 2 26 C1.01 26 0.02 26 -1 26 C-1.66 24.35 -2.32 22.7 -3 21 C-2.34 21.33 -1.68 21.66 -1 22 C-0.67 14.74 -0.34 7.48 0 0 Z " fill="#8456AE" transform="translate(198,396)"/>
<path d="M0 0 C1.32 0.33 2.64 0.66 4 1 C3.67 1.515625 3.34 2.03125 3 2.5625 C1.24229337 6.84690991 1.47174124 10.57059395 3.0625 14.875 C5.77017535 17.84470845 8.09406118 17.77890912 12 18 C12 18.99 12 19.98 12 21 C6.21190227 20.74779531 2.17399994 20.43487494 -2 16 C-3.23446068 12.29661796 -3.44981274 8.85339582 -3 5 C-1.5 2 -1.5 2 0 0 Z " fill="#8D49CA" transform="translate(122,456)"/>
<path d="M0 0 C-4.12255707 1.57406724 -8.23505975 3.09094344 -12.4375 4.4375 C-15.44898549 5.42596378 -18.3097484 6.54803676 -21.1875 7.875 C-25.16932289 9.68300085 -29.21384786 11.2909463 -33.3125 12.8125 C-34.48425781 13.25207031 -35.65601563 13.69164062 -36.86328125 14.14453125 C-39.87262521 14.96526142 -41.1628621 15.14186044 -44 14 C-38.75266143 11.15769161 -33.38801324 8.91409814 -27.8125 6.8125 C-26.77899414 6.41973877 -26.77899414 6.41973877 -25.72460938 6.01904297 C-22.17694867 4.70111964 -18.73982831 3.60272961 -15 3 C-15 2.34 -15 1.68 -15 1 C-14.39671875 0.93941406 -13.7934375 0.87882812 -13.171875 0.81640625 C-11.97304688 0.69072266 -11.97304688 0.69072266 -10.75 0.5625 C-9.96109375 0.48128906 -9.1721875 0.40007812 -8.359375 0.31640625 C-6.0104271 0.05536338 -6.0104271 0.05536338 -3.828125 -0.59765625 C-2 -1 -2 -1 0 0 Z " fill="#7239A6" transform="translate(351,263)"/>
<path d="M0 0 C1.24546405 2.49092811 0.7767578 3.41080733 0 6 C0.99 6 1.98 6 3 6 C6.06806466 9.15830185 7.49942848 11.61999924 8 16 C5.03 16 2.06 16 -1 16 C-1.33 14.68 -1.66 13.36 -2 12 C-3.32 13.32 -4.64 14.64 -6 16 C-4.56176509 10.36691325 -2.45855991 5.26322777 0 0 Z " fill="#773CAD" transform="translate(603,454)"/>
<path d="M0 0 C1.32 0 2.64 0 4 0 C4 7.92 4 15.84 4 24 C2.68 24 1.36 24 0 24 C0 16.08 0 8.16 0 0 Z " fill="#8D4ACB" transform="translate(674,453)"/>
<path d="M0 0 C0.14420386 12.36948647 -0.28488027 24.65141462 -1 37 C3.62 37 8.24 37 13 37 C13 37.33 13 37.66 13 38 C7.72 38 2.44 38 -3 38 C-3 25.79 -3 13.58 -3 1 C-1 0 -1 0 0 0 Z " fill="#A16ED0" transform="translate(473,305)"/>
<path d="M0 0 C1.95803507 -0.05389087 3.91648909 -0.09274217 5.875 -0.125 C7.51082031 -0.15980469 7.51082031 -0.15980469 9.1796875 -0.1953125 C12 0 12 0 14 2 C13.46428571 5.53571429 13.46428571 5.53571429 12 7 C9.98035801 7.07244053 7.95832876 7.08377188 5.9375 7.0625 C4.83277344 7.05347656 3.72804688 7.04445313 2.58984375 7.03515625 C1.30787109 7.01775391 1.30787109 7.01775391 0 7 C0 4.69 0 2.38 0 0 Z " fill="#391758" transform="translate(85,457)"/>
<path d="M0 0 C-2.63923648 2.63923648 -5.109276 3.20357312 -8.65234375 4.3828125 C-9.30828018 4.60194305 -9.96421661 4.82107361 -10.64002991 5.04684448 C-12.0268805 5.50857492 -13.41472323 5.96733449 -14.8034668 6.42333984 C-16.9283307 7.12198518 -19.04924504 7.83172864 -21.16992188 8.54296875 C-22.51800772 8.99025132 -23.86630819 9.43688764 -25.21484375 9.8828125 C-26.44323975 10.28902832 -27.67163574 10.69524414 -28.93725586 11.11376953 C-32 12 -32 12 -35 12 C-35 11.34 -35 10.68 -35 10 C-33.83984375 9.62488281 -32.6796875 9.24976563 -31.484375 8.86328125 C-29.90587605 8.3474972 -28.32777803 7.83048514 -26.75 7.3125 C-25.52277222 6.91019165 -25.52277222 6.91019165 -24.27075195 6.49975586 C-18.49676656 4.57660642 -12.98741051 2.3836699 -7.48046875 -0.21484375 C-4.58139611 -1.13250296 -2.88783491 -0.83472428 0 0 Z " fill="#8255AC" transform="translate(294,258)"/>
<path d="M0 0 C0.66 0.33 1.32 0.66 2 1 C0.61048946 5.37906352 -0.33065022 8.02913303 -4.46875 10.25 C-5.80180811 10.85736967 -7.14618484 11.44042307 -8.5 12 C-9.17675781 12.31066406 -9.85351562 12.62132812 -10.55078125 12.94140625 C-15.56257972 15.14580676 -15.56257972 15.14580676 -19 14 C-12.71531225 9.2632649 -6.43402649 4.53306412 0 0 Z " fill="#8F5FBB" transform="translate(288,339)"/>
<path d="M0 0 C4.29 0 8.58 0 13 0 C13 1.65 13 3.3 13 5 C12 6 12 6 9.27734375 6.09765625 C7.62412109 6.08025391 7.62412109 6.08025391 5.9375 6.0625 C4.83277344 6.05347656 3.72804688 6.04445313 2.58984375 6.03515625 C1.30787109 6.01775391 1.30787109 6.01775391 0 6 C0 4.02 0 2.04 0 0 Z " fill="#331350" transform="translate(639,458)"/>
<path d="M0 0 C0 0.66 0 1.32 0 2 C-1.9765625 3.4375 -1.9765625 3.4375 -4.625 5 C-5.48351562 5.515625 -6.34203125 6.03125 -7.2265625 6.5625 C-10.09875197 8.05118412 -12.93373375 8.98184236 -16 10 C-19.10078129 11.55828068 -22.14606668 13.19894462 -25.1953125 14.85546875 C-28.25454196 16.10387297 -28.98985016 15.9428366 -32 15 C-27.76671007 12.85867666 -23.5308439 10.7225723 -19.29248047 8.59130859 C-17.85034935 7.86520743 -16.40893878 7.13767335 -14.96826172 6.40869141 C-12.89998128 5.36245182 -10.829183 4.32135554 -8.7578125 3.28125 C-8.11192169 2.95314331 -7.46603088 2.62503662 -6.80056763 2.2869873 C-2.22774341 0 -2.22774341 0 0 0 Z " fill="#7B50A4" transform="translate(431,258)"/>
<path d="M0 0 C0.66 0.33 1.32 0.66 2 1 C-2.26843618 5.73296825 -7.17078026 8.89916732 -12.5625 12.25 C-13.41263672 12.79140625 -14.26277344 13.3328125 -15.13867188 13.890625 C-22.03428849 18.2172864 -22.03428849 18.2172864 -26 19 C-21.43044388 13.88248855 -15.90586101 10.41653193 -10.1875 6.6875 C-8.71893555 5.71973633 -8.71893555 5.71973633 -7.22070312 4.73242188 C-4.81721811 3.14963906 -2.41029972 1.57237754 0 0 Z " fill="#763BAB" transform="translate(394,298)"/>
<path d="M0 0 C3.12270126 2.51830747 3.94523098 3.7261549 4.75 7.75 C4.8325 8.8225 4.915 9.895 5 11 C2.36 11 -0.28 11 -3 11 C-2.25 3.375 -2.25 3.375 0 0 Z " fill="#5E3881" transform="translate(466,409)"/>
<path d="M0 0 C0.74958984 0.00451172 1.49917969 0.00902344 2.27148438 0.01367188 C4.11852383 0.02543646 5.96552213 0.04337135 7.8125 0.0625 C7.8125 0.3925 7.8125 0.7225 7.8125 1.0625 C1.8725 1.3925 -4.0675 1.7225 -10.1875 2.0625 C-10.8475 3.3825 -11.5075 4.7025 -12.1875 6.0625 C-13.52083333 7.39583333 -14.85416667 8.72916667 -16.1875 10.0625 C-17.2416518 13.22495541 -17.50025672 15.93198218 -17.75 19.25 C-17.83378906 20.33667969 -17.91757812 21.42335938 -18.00390625 22.54296875 C-18.06449219 23.37441406 -18.12507812 24.20585937 -18.1875 25.0625 C-18.5175 25.0625 -18.8475 25.0625 -19.1875 25.0625 C-19.26915496 22.85479195 -19.32698488 20.64619575 -19.375 18.4375 C-19.42720703 16.59285156 -19.42720703 16.59285156 -19.48046875 14.7109375 C-19.06249436 9.50576307 -17.50800577 6.28396783 -13.6875 2.75 C-9.22192395 -0.26426383 -5.19182495 -0.05894648 0 0 Z " fill="#8659B0" transform="translate(559.1875,395.9375)"/>
<path d="M0 0 C-1.65 0.66 -3.3 1.32 -5 2 C-4.67 2.66 -4.34 3.32 -4 4 C-5.89248819 4.67610423 -7.7891602 5.34050439 -9.6875 6 C-11.27111328 6.556875 -11.27111328 6.556875 -12.88671875 7.125 C-15.78362056 7.9391857 -18.01700623 8.17709796 -21 8 C-20.67 7.01 -20.34 6.02 -20 5 C-17.671875 3.90234375 -17.671875 3.90234375 -14.75 2.9375 C-10.47821624 1.5017479 -10.47821624 1.5017479 -6.28515625 -0.14453125 C-3.69355992 -1.11471859 -2.55368597 -0.94580962 0 0 Z " fill="#8C5DB8" transform="translate(314,250)"/>
<path d="M0 0 C4.54805635 -0.17835515 7.8794254 0.00214565 12 2 C11.01 2.33 10.02 2.66 9 3 C9 3.99 9 4.98 9 6 C9.99 6 10.98 6 12 6 C11.67 6.66 11.34 7.32 11 8 C7.7 7.01 4.4 6.02 1 5 C0.67 3.35 0.34 1.7 0 0 Z " fill="#441D68" transform="translate(377,457)"/>
<path d="M0 0 C0 0.33 0 0.66 0 1 C-1.98 1 -3.96 1 -6 1 C-6.309375 1.639375 -6.61875 2.27875 -6.9375 2.9375 C-8 5 -8 5 -9 6 C-9.33340471 8.95804573 -9.33340471 8.95804573 -9 12 C-5.68629 14.20914 -4.6553979 14.22481553 -0.8125 14.125 C0.53908203 14.09792969 0.53908203 14.09792969 1.91796875 14.0703125 C2.94857422 14.03550781 2.94857422 14.03550781 4 14 C4.33 15.65 4.66 17.3 5 19 C4.34 19 3.68 19 3 19 C2.67 18.01 2.34 17.02 2 16 C1.09507812 16.05220703 1.09507812 16.05220703 0.171875 16.10546875 C-3.33569872 16.22427367 -6.24398276 16.27659167 -9.5625 15.0625 C-11.96003665 11.62255611 -11.70663826 8.03585148 -11 4 C-8.16991495 -0.64133948 -5.1404796 -0.39542151 0 0 Z " fill="#562880" transform="translate(538,457)"/>
<path d="M0 0 C2.6456129 1.32280645 2.96738285 2.23132344 4 5 C4.30078125 8.4609375 4.30078125 8.4609375 4.3125 12.375 C4.32925781 13.66148437 4.34601563 14.94796875 4.36328125 16.2734375 C3.98133229 20.19149454 2.97712676 22.63001614 1 26 C0.34 26 -0.32 26 -1 26 C-0.67386719 25.34 -0.34773438 24.68 -0.01171875 24 C1.23963058 20.28943519 1.25524013 16.86475283 1.1875 13 C1.18685547 12.30132812 1.18621094 11.60265625 1.18554688 10.8828125 C1.15374756 7.13756 0.8889305 3.64105933 0 0 Z " fill="#58337A" transform="translate(258,403)"/>
<path d="M0 0 C0 0.33 0 0.66 0 1 C-0.87140625 1.04898437 -1.7428125 1.09796875 -2.640625 1.1484375 C-10.53903157 1.64422493 -18.22342213 2.53298989 -26 4 C-26 4.33 -26 4.66 -26 5 C-28.31 5 -30.62 5 -33 5 C-33 4.34 -33 3.68 -33 3 C-23.52956518 -1.73521741 -10.28623121 -0.20780265 0 0 Z " fill="#69418F" transform="translate(431,339)"/>
<path d="M0 0 C0.33 0 0.66 0 1 0 C1 7.92 1 15.84 1 24 C-0.65 24 -2.3 24 -4 24 C-4 20.37 -4 16.74 -4 13 C-4.66 13 -5.32 13 -6 13 C-5.67 11.68 -5.34 10.36 -5 9 C-4.34 9 -3.68 9 -3 9 C-3 13.62 -3 18.24 -3 23 C-2.01 23 -1.02 23 0 23 C0 15.41 0 7.82 0 0 Z " fill="#602F8E" transform="translate(186,454)"/>
<path d="M0 0 C4 4.5 4 4.5 4 9 C1.69 9 -0.62 9 -3 9 C-2.25 2.25 -2.25 2.25 0 0 Z " fill="#3C195D" transform="translate(606,460)"/>
<path d="M0 0 C0.98097656 0.16371094 1.96195313 0.32742188 2.97265625 0.49609375 C7.14118966 1.09159852 11.23401136 1.11249575 15.4375 1.0625 C16.16904297 1.05798828 16.90058594 1.05347656 17.65429688 1.04882812 C19.43623419 1.03718148 21.21812863 1.01925191 23 1 C22.67 1.99 22.34 2.98 22 4 C7.8957941 4.38700565 7.8957941 4.38700565 1 2 C0.67 1.34 0.34 0.68 0 0 Z " fill="#7F53A8" transform="translate(228,431)"/>
<path d="M0 0 C0.66 0 1.32 0 2 0 C5 5.625 5 5.625 5 9 C2.69 9 0.38 9 -2 9 C-1.125 2.25 -1.125 2.25 0 0 Z " fill="#441D67" transform="translate(308,460)"/>
<path d="M0 0 C-0.33 0.33 -0.66 0.66 -1 1 C2.3 0.67 5.6 0.34 9 0 C6.17685218 1.88209855 3.79588032 2.92011435 0.625 4.0625 C-0.31085938 4.40410156 -1.24671875 4.74570313 -2.2109375 5.09765625 C-4.80106248 5.93563786 -7.32185903 6.52767332 -10 7 C-6.25 4 -6.25 4 -4 4 C-4 3.34 -4 2.68 -4 2 C-4.99 1.34 -5.98 0.68 -7 0 C-3.86650268 -1.04449911 -3.01031744 -0.93423645 0 0 Z " fill="#663296" transform="translate(379,249)"/>
<path d="M0 0 C-3.17151097 2.11434065 -5.86432861 3.01955937 -9.5 4.125 C-10.6446875 4.47820312 -11.789375 4.83140625 -12.96875 5.1953125 C-16 6 -16 6 -19 6 C-19 5.34 -19 4.68 -19 4 C-16.77585391 3.13020539 -14.54727408 2.27916816 -12.3125 1.4375 C-11.68666016 1.19064453 -11.06082031 0.94378906 -10.41601562 0.68945312 C-6.5479443 -0.74841632 -3.96399767 -1.26575069 0 0 Z " fill="#573279" transform="translate(278,264)"/>
<path d="M0 0 C-2.95566597 1.51204208 -5.94134439 2.89596402 -9 4.1875 C-9.845625 4.55230469 -10.69125 4.91710937 -11.5625 5.29296875 C-14.19995359 6.05799936 -15.45517596 5.92485503 -18 5 C-5.27179715 -1.50622776 -5.27179715 -1.50622776 0 0 Z " fill="#572982" transform="translate(325,272)"/>
<path d="M0 0 C-5.60236281 2.67149708 -10.93139507 4.67594074 -17 6 C-16 3 -16 3 -14 1.375 C-9.84055699 -0.53141138 -4.28884013 -2.14442006 0 0 Z " fill="#68408D" transform="translate(300,311)"/>
<path d="M0 0 C0.66 0.33 1.32 0.66 2 1 C1.9375 2.8125 1.9375 2.8125 1 5 C-2.375 6.8125 -2.375 6.8125 -6 8 C-6.99 7.67 -7.98 7.34 -9 7 C-6.03 4.69 -3.06 2.38 0 0 Z " fill="#8658B0" transform="translate(278,346)"/>
<path d="M0 0 C1.32 0.33 2.64 0.66 4 1 C4 2.32 4 3.64 4 5 C0.04 5 -3.92 5 -8 5 C-7.34 4.01 -6.68 3.02 -6 2 C-2.875 1.8125 -2.875 1.8125 0 2 C0 1.34 0 0.68 0 0 Z " fill="#7B3FB3" transform="translate(239,454)"/>
<path d="M0 0 C0 0.33 0 0.66 0 1 C-1.98 1.33 -3.96 1.66 -6 2 C-4.02 2.66 -2.04 3.32 0 4 C0 4.33 0 4.66 0 5 C-4.455 5.495 -4.455 5.495 -9 6 C-9 5.34 -9 4.68 -9 4 C-9.66 3.34 -10.32 2.68 -11 2 C-7.36576791 -0.32590854 -4.22911669 -0.16265833 0 0 Z " fill="#7239A7" transform="translate(134,453)"/>
<path d="M0 0 C0 0.66 0 1.32 0 2 C-1.093125 2.28875 -2.18625 2.5775 -3.3125 2.875 C-7.04013845 3.81893204 -7.04013845 3.81893204 -10 6 C-10.66 5.67 -11.32 5.34 -12 5 C-12 3 -12 3 -10.5 1.375 C-6.87989192 -0.61605945 -4.10006991 -0.2050035 0 0 Z " fill="#934DD3" transform="translate(239,454)"/>
<path d="M0 0 C0.66 0.66 1.32 1.32 2 2 C-0.119212 3.36405618 -2.24448118 4.71631775 -4.375 6.0625 C-4.97828125 6.45244141 -5.5815625 6.84238281 -6.203125 7.24414062 C-7.76492557 8.22460432 -9.37992214 9.11916075 -11 10 C-11.66 9.67 -12.32 9.34 -13 9 C-11.20966193 7.68568828 -9.41768797 6.3736047 -7.625 5.0625 C-6.62726563 4.33160156 -5.62953125 3.60070312 -4.6015625 2.84765625 C-2 1 -2 1 0 0 Z " fill="#55277E" transform="translate(381,307)"/>
<path d="M0 0 C-1.65 0.66 -3.3 1.32 -5 2 C-4.67 2.66 -4.34 3.32 -4 4 C-6.8125 4.625 -6.8125 4.625 -10 5 C-10.99 4.34 -11.98 3.68 -13 3 C-11.5903653 2.29819469 -10.17192359 1.61406042 -8.75 0.9375 C-7.96109375 0.55464844 -7.1721875 0.17179688 -6.359375 -0.22265625 C-3.74006478 -1.08564091 -2.55144824 -0.93045933 0 0 Z " fill="#8053A9" transform="translate(314,250)"/>
<path d="M0 0 C0.66 0.33 1.32 0.66 2 1 C0.02 2.32 -1.96 3.64 -4 5 C-3.67 5.66 -3.34 6.32 -3 7 C-3.99 7 -4.98 7 -6 7 C-6 6.34 -6 5.68 -6 5 C-8.97 5.66 -11.94 6.32 -15 7 C-14 5 -14 5 -11.85546875 4.21875 C-10.97503906 3.9815625 -10.09460938 3.744375 -9.1875 3.5 C-6.5482991 2.78269872 -4.22469349 2.1181337 -1.80078125 0.84375 C-0.90939453 0.42609375 -0.90939453 0.42609375 0 0 Z " fill="#7E52A6" transform="translate(337,239)"/>
<path d="M0 0 C0.66 0.33 1.32 0.66 2 1 C2.625 3.5625 2.625 3.5625 3 6 C0.69 6 -1.62 6 -4 6 C-2.84826645 3.53199953 -1.95216435 1.95216435 0 0 Z " fill="#31144D" transform="translate(467,413)"/>
<path d="M0 0 C-0.33 0.99 -0.66 1.98 -1 3 C-2.77734375 3.765625 -2.77734375 3.765625 -4.9375 4.25 C-5.64777344 4.42015625 -6.35804688 4.5903125 -7.08984375 4.765625 C-9 5 -9 5 -11 4 C-11 3.34 -11 2.68 -11 2 C-9.5422647 1.664061 -8.08378894 1.33133376 -6.625 1 C-5.40683594 0.7215625 -5.40683594 0.7215625 -4.1640625 0.4375 C-2 0 -2 0 0 0 Z " fill="#7F41B7" transform="translate(354,259)"/>
<path d="M0 0 C0.66 0.33 1.32 0.66 2 1 C1.34 1.66 0.68 2.32 0 3 C0.66 3.66 1.32 4.32 2 5 C-2.455 5.495 -2.455 5.495 -7 6 C-5.01180815 3.01771223 -3.42353587 1.21480305 0 0 Z " fill="#A370D2" transform="translate(339,239)"/>
<path d="M0 0 C1.32 0.66 2.64 1.32 4 2 C4 2.99 4 3.98 4 5 C3.29875 4.855625 2.5975 4.71125 1.875 4.5625 C-1.07556141 3.98521625 -4.03270151 3.48304859 -7 3 C-7 2.67 -7 2.34 -7 2 C-4.69 2 -2.38 2 0 2 C0 1.34 0 0.68 0 0 Z " fill="#8444BF" transform="translate(385,454)"/>
<path d="M0 0 C1.32 0.33 2.64 0.66 4 1 C3.25 2.9375 3.25 2.9375 2 5 C-0.125 5.75 -0.125 5.75 -2 6 C-2 3 -2 3 0 0 Z " fill="#9B69C9" transform="translate(281,344)"/>
<path d="M0 0 C-2.90092502 1.93395001 -3.89674737 2.30131941 -7.1875 2.625 C-8.445625 2.74875 -9.70375 2.8725 -11 3 C-7.16077997 -1.01373003 -5.47880919 -1.07194093 0 0 Z " fill="#643192" transform="translate(333,269)"/>
<path d="M0 0 C-3.82517513 2.39073445 -7.59665524 2.55966552 -12 3 C-8.16772312 -1.19725563 -5.42060446 -1.08412089 0 0 Z " fill="#764B9D" transform="translate(287,261)"/>
<path d="M0 0 C0.66 1.32 1.32 2.64 2 4 C1.54625 4.391875 1.0925 4.78375 0.625 5.1875 C-1.27642919 7.30832487 -2.06204028 9.33042235 -3 12 C-3.88336837 9.5332355 -4.1312406 8.36140628 -3.22265625 5.859375 C-2.83980469 5.16328125 -2.45695312 4.4671875 -2.0625 3.75 C-1.68222656 3.04359375 -1.30195313 2.3371875 -0.91015625 1.609375 C-0.60980469 1.07828125 -0.30945313 0.5471875 0 0 Z " fill="#4F2C6F" transform="translate(415,415)"/>
<path d="M0 0 C0.66 0 1.32 0 2 0 C2 3.3 2 6.6 2 10 C1.67 10 1.34 10 1 10 C0.67 8.35 0.34 6.7 0 5 C-0.99 5.66 -1.98 6.32 -3 7 C-1.125 2.25 -1.125 2.25 0 0 Z " fill="#381657" transform="translate(180,467)"/>
<path d="M0 0 C0.33 1.32 0.66 2.64 1 4 C-1.31 4.33 -3.62 4.66 -6 5 C-4.87312259 1.61936778 -3.78825335 0 0 0 Z " fill="#9A68C8" transform="translate(297,307)"/>
<path d="M0 0 C4.29 0 8.58 0 13 0 C12.67 0.66 12.34 1.32 12 2 C11.31292969 1.98839844 10.62585938 1.97679687 9.91796875 1.96484375 C9.01691406 1.95582031 8.11585938 1.94679688 7.1875 1.9375 C6.29417969 1.92589844 5.40085937 1.91429687 4.48046875 1.90234375 C1.86586209 1.88990033 1.86586209 1.88990033 -1 3 C-0.67 2.01 -0.34 1.02 0 0 Z " fill="#391659" transform="translate(303,474)"/>
<path d="M0 0 C-0.8125 2.9375 -0.8125 2.9375 -2 6 C-2.99 6.33 -3.98 6.66 -5 7 C-5.33 5.68 -5.66 4.36 -6 3 C-2.25 0 -2.25 0 0 0 Z " fill="#8042B9" transform="translate(422,280)"/>
<path d="M0 0 C2.31 0 4.62 0 7 0 C7 0.99 7 1.98 7 3 C4.69 2.67 2.38 2.34 0 2 C0 1.34 0 0.68 0 0 Z " fill="#954ED5" transform="translate(127,474)"/>
<path d="M0 0 C0.99 0.66 1.98 1.32 3 2 C3 2.99 3 3.98 3 5 C1.35 5 -0.3 5 -2 5 C-1.34 3.35 -0.68 1.7 0 0 Z " fill="#2B0F46" transform="translate(309,463)"/>
<path d="M0 0 C2.475 0.495 2.475 0.495 5 1 C5 1.99 5 2.98 5 4 C3.35 4.33 1.7 4.66 0 5 C0 3.33333333 0 1.66666667 0 0 Z " fill="#793DAF" transform="translate(239,472)"/>
<path d="M0 0 C-3.18762365 2.12508244 -5.26512223 2.5020163 -9 3 C-6.07868595 -0.19953443 -4.37453972 -1.45817991 0 0 Z " fill="#401B63" transform="translate(316,275)"/>
</svg>
